<?xml version="1.0" standalone="no"?>
<!DOCTYPE svg PUBLIC "-//W3C//DTD SVG 1.1//EN" "http://www.w3.org/Graphics/SVG/1.1/DTD/svg11.dtd" >
<svg xmlns="http://www.w3.org/2000/svg" xmlns:xlink="http://www.w3.org/1999/xlink" version="1.1">
<metadata></metadata>
<defs>
<font id="voltesemibold" horiz-adv-x="1183" >
<font-face units-per-em="2048" ascent="1536" descent="-512" />
<missing-glyph horiz-adv-x="440" />
<glyph unicode="&#xfb01;" horiz-adv-x="1241" d="M59 760v221h160v18q0 203 127 321t350 118q259 0 414 -135l-127 -195q-47 43 -121.5 68.5t-150.5 25.5q-116 0 -179 -52.5t-63 -156.5v-12h627v-981h-252v760h-375v-760h-250v760h-160z" />
<glyph unicode="&#xfb02;" horiz-adv-x="1241" d="M59 760v221h160v20q0 202 116.5 319.5t301.5 117.5q128 0 231 -39h228v-1399h-252v1153q-74 49 -180 49q-86 0 -140.5 -52t-54.5 -146v-23h213v-221h-213v-760h-250v760h-160z" />
<glyph horiz-adv-x="0" />
<glyph horiz-adv-x="682" />
<glyph unicode=" "  horiz-adv-x="440" />
<glyph unicode="&#x09;" horiz-adv-x="440" />
<glyph unicode="&#xa0;" horiz-adv-x="440" />
<glyph unicode="!" horiz-adv-x="604" d="M139 137q0 68 47.5 116t114.5 48t115.5 -48.5t48.5 -115.5t-48 -114.5t-116 -47.5q-67 0 -114.5 47.5t-47.5 114.5zM168 1313h268l-33 -842h-200z" />
<glyph unicode="&#x22;" horiz-adv-x="747" d="M94 1409h234l-29 -448h-182zM420 1409h233l-28 -448h-183z" />
<glyph unicode="#" horiz-adv-x="1255" d="M23 348l36 182h207l53 265h-206l37 182h206l68 336h209l-68 -336h256l68 336h209l-68 -336h203l-35 -182h-205l-53 -265h205l-37 -182h-207l-70 -348h-208l69 348h-256l-69 -348h-209l69 348h-204zM475 530h256l53 265h-256z" />
<glyph unicode="$" horiz-adv-x="1150" d="M66 227l182 170q123 -164 334 -164q106 0 164.5 40.5t58.5 111.5q0 48 -38 83t-99 57.5t-134.5 44t-147 50t-134.5 66.5t-99 103t-38 151q0 145 104 247t275 128v182h213v-184q118 -20 211 -76.5t149 -136.5l-176 -174q-45 65 -127.5 109t-179.5 44q-91 0 -143 -36 t-52 -95q0 -35 23.5 -62t63.5 -46t92 -36t109 -34t114 -37t109 -49.5t92 -67t63.5 -93t23.5 -124.5q0 -152 -100.5 -258.5t-271.5 -138.5v-186h-213v180q-291 24 -428 231z" />
<glyph unicode="%" horiz-adv-x="1355" d="M29 983q0 150 76 248t194 98q121 0 201 -98t78 -246q1 -149 -75.5 -245.5t-195.5 -96.5q-121 0 -199.5 96t-78.5 244zM139 0l883 1313h195l-881 -1313h-197zM193 985q0 -89 28.5 -139.5t81.5 -50.5q52 0 81.5 50.5t29.5 137.5q0 89 -29 141t-82 52q-51 0 -80.5 -52 t-29.5 -139zM778 326q0 150 76.5 248t194.5 98q121 0 200.5 -98t77.5 -246q1 -149 -75 -245.5t-195 -96.5q-121 0 -200 96t-79 244zM942 328q0 -89 29 -140t82 -51q52 0 81 51t29 138q0 89 -28.5 140.5t-81.5 51.5q-51 0 -81 -51.5t-30 -138.5z" />
<glyph unicode="&#x26;" horiz-adv-x="1341" d="M109 393q0 214 180 359q-74 104 -74 225q0 157 114.5 260.5t288.5 103.5q117 0 206.5 -49.5t140.5 -128.5l-172 -168q-57 111 -179 111q-66 0 -106.5 -38.5t-40.5 -96.5q0 -85 92 -164l375 -324l141 179l185 -140l-150 -190l199 -172l-148 -189l-205 179 q-182 -179 -415 -179q-184 0 -308 120t-124 302zM358 412q0 -88 57.5 -146.5t141.5 -58.5q126 0 227 94l-335 293q-91 -74 -91 -182z" />
<glyph unicode="'" horiz-adv-x="421" d="M94 1409h234l-29 -448h-182z" />
<glyph unicode="(" horiz-adv-x="700" d="M104 561q0 499 412 885l158 -141q-320 -307 -320 -744q0 -436 320 -743l-158 -142q-412 386 -412 885z" />
<glyph unicode=")" horiz-adv-x="700" d="M27 -182q319 306 319 743q0 438 -319 744l157 141q412 -386 412 -885t-412 -885z" />
<glyph unicode="*" horiz-adv-x="866" d="M94 1094l60 182l200 -84l-16 217h190l-18 -217l203 84l59 -182l-211 -50l141 -165l-153 -113l-115 186l-115 -186l-155 113l141 165z" />
<glyph unicode="+" horiz-adv-x="1067" d="M92 545v227h324v350h235v-350h324v-227h-324v-350h-235v350h-324z" />
<glyph unicode="," horiz-adv-x="468" d="M-8 -238l117 523h266l-172 -523h-211z" />
<glyph unicode="-" horiz-adv-x="667" d="M82 397v213h504v-213h-504z" />
<glyph unicode="." horiz-adv-x="468" d="M72 137q0 68 47 116t114 48t115.5 -48.5t48.5 -115.5t-48 -114.5t-116 -47.5q-67 0 -114 47t-47 115z" />
<glyph unicode="/" horiz-adv-x="878" d="M33 0l557 1313h256l-557 -1313h-256z" />
<glyph unicode="0" horiz-adv-x="1222" d="M96 655q0 195 65.5 352t182.5 245.5t262 88.5q149 0 269 -88.5t186.5 -245t64.5 -350.5q2 -195 -63.5 -352t-182.5 -245.5t-264 -88.5q-148 0 -267 88.5t-186 245t-67 350.5zM346 657q0 -201 73.5 -325.5t192.5 -124.5q118 0 191.5 124t73.5 324q0 201 -74.5 326 t-196.5 125q-116 0 -188 -125t-72 -324z" />
<glyph unicode="1" horiz-adv-x="903" d="M78 979l352 334h256v-1313h-250v1016l-209 -203z" />
<glyph unicode="2" horiz-adv-x="1042" d="M37 1044q29 61 69.5 112t97 94t133.5 67t167 24q198 0 319 -119.5t121 -293.5q0 -105 -50.5 -200t-164.5 -202l-328 -305h551v-221h-893v190l494 476q139 130 139 256q0 80 -55 132t-145 52q-168 0 -261 -191z" />
<glyph unicode="3" horiz-adv-x="1048" d="M27 195l182 163q55 -79 121 -115t155 -36q115 0 173.5 56.5t58.5 146.5q0 103 -68 157t-203 54h-141v143l324 328h-523v221h826v-193l-328 -323q179 -30 272 -132.5t93 -256.5q0 -92 -32 -171t-93 -138.5t-155.5 -93.5t-213.5 -34q-152 0 -266 59.5t-182 164.5z" />
<glyph unicode="4" horiz-adv-x="1146" d="M57 252v219l639 842h226v-842h186v-219h-186v-252h-244v252h-621zM289 471h389v514z" />
<glyph unicode="5" horiz-adv-x="1103" d="M72 195l182 163q105 -151 262 -151q111 0 175.5 60t64.5 155t-62.5 157t-175.5 62q-133 0 -252 -72l-114 80l106 664h674v-221h-471l-45 -267q63 29 153 29q202 0 320.5 -121.5t118.5 -314.5q0 -196 -132.5 -321.5t-355.5 -125.5q-152 0 -265 59.5t-183 164.5z" />
<glyph unicode="6" horiz-adv-x="1150" d="M96 442q0 108 43 209.5t168 284.5l266 377h285l-297 -434q8 2 25 2q106 0 197.5 -36t153 -96.5t96 -140.5t34.5 -166q0 -201 -135.5 -336t-347.5 -135q-209 0 -348.5 136.5t-139.5 334.5zM346 442q0 -99 69 -167t169 -68q98 0 164.5 67.5t66.5 167.5q0 98 -66.5 165 t-164.5 67q-100 0 -169 -67t-69 -165z" />
<glyph unicode="7" horiz-adv-x="942" d="M43 1092v221h850v-197l-490 -1116h-268l494 1092h-586z" />
<glyph unicode="8" horiz-adv-x="1099" d="M82 373q0 109 58 197.5t159 140.5q-78 48 -122 121.5t-44 162.5q0 149 117.5 247.5t296.5 98.5q181 0 299.5 -98.5t118.5 -247.5q0 -89 -43 -162.5t-119 -121.5q100 -52 157.5 -140.5t57.5 -197.5q0 -172 -134.5 -287t-336.5 -115q-200 0 -332.5 115t-132.5 287zM332 395 q0 -90 63 -150.5t156 -60.5q92 0 153.5 60.5t61.5 150.5q0 89 -61.5 149t-153.5 60q-94 0 -156.5 -60t-62.5 -149zM377 967q0 -68 50.5 -114t123.5 -46q72 0 122 46.5t50 113.5q0 69 -50 116t-122 47q-74 0 -124 -47t-50 -116z" />
<glyph unicode="9" horiz-adv-x="1150" d="M84 850q0 200 136 334.5t347 134.5q209 0 348.5 -135.5t139.5 -333.5q0 -108 -43 -209.5t-168 -284.5l-264 -379h-287l297 437q-8 -2 -25 -2q-212 0 -346.5 129t-134.5 309zM336 850q0 -99 67 -166.5t166 -67.5q98 0 167 68t69 166t-68.5 165.5t-167.5 67.5t-166 -67 t-67 -166z" />
<glyph unicode=":" horiz-adv-x="468" d="M72 137q0 68 47 116t114 48t115.5 -48.5t48.5 -115.5t-48 -114.5t-116 -47.5q-67 0 -114 47t-47 115zM72 821q0 68 47 116t114 48t115.5 -48.5t48.5 -115.5t-48 -114.5t-116 -47.5q-67 0 -114 47t-47 115z" />
<glyph unicode=";" horiz-adv-x="468" d="M-8 -238l117 523h266l-172 -523h-211zM72 821q0 68 47 116t114 48t115.5 -48.5t48.5 -115.5t-48 -114.5t-116 -47.5q-67 0 -114 47t-47 115z" />
<glyph unicode="&#x3c;" horiz-adv-x="1067" d="M92 557v217l883 389v-243l-613 -254l613 -254v-246z" />
<glyph unicode="=" horiz-adv-x="1067" d="M92 344v227h883v-227h-883zM92 745v228h883v-228h-883z" />
<glyph unicode="&#x3e;" horiz-adv-x="1067" d="M92 166v246l613 254l-613 254v243l883 -389v-217z" />
<glyph unicode="?" horiz-adv-x="991" d="M39 1106q63 103 170.5 169t245.5 66q98 0 178 -32.5t130.5 -86.5t77.5 -123t27 -145q0 -121 -61 -214t-215 -195l-139 -92l-117 180l149 102q69 47 101 94.5t32 110.5q0 72 -50 119t-126 47q-128 0 -239 -148zM293 137q0 68 47.5 116t114.5 48t115 -48t48 -116 q0 -67 -47.5 -114.5t-115.5 -47.5q-67 0 -114.5 47.5t-47.5 114.5z" />
<glyph unicode="@" horiz-adv-x="1748" d="M82 569q0 163 64 311.5t172 256t256.5 171.5t310.5 64t308 -60t249.5 -160t164 -235.5t60.5 -281.5q0 -89 -23 -170t-67 -146.5t-115.5 -104t-161.5 -38.5q-81 0 -146 34.5t-97 106.5q-91 -143 -264 -143q-132 0 -219 97t-87 257q0 178 106.5 300t258.5 122 q131 0 199 -84l4 62h188l-24 -428q-4 -76 22.5 -113t75.5 -37q77 0 119.5 80.5t42.5 202.5q0 112 -45 214.5t-123 178.5t-189.5 121t-236.5 45q-126 0 -240.5 -49.5t-197 -133.5t-131 -199t-48.5 -241q0 -125 48.5 -240t131 -199t197 -133.5t240.5 -49.5q100 0 167 17.5 t128 55.5l75 -159q-147 -94 -370 -94q-162 0 -310.5 63.5t-256.5 171t-172 256t-64 311.5zM680 543q0 -81 46.5 -135t111.5 -54q89 0 142.5 67t53.5 161q0 81 -44 134.5t-116 53.5q-82 0 -138 -66t-56 -161z" />
<glyph unicode="A" horiz-adv-x="1421" d="M33 0l528 1313h299l529 -1313h-285l-113 295h-575l-115 -295h-268zM502 522h401l-201 520z" />
<glyph unicode="B" horiz-adv-x="1222" d="M158 0v1313h526q187 0 310.5 -103t123.5 -262q0 -55 -17.5 -102t-48 -79.5t-62.5 -55t-68 -37.5q103 -31 168 -109.5t65 -195.5q0 -156 -117.5 -262.5t-322.5 -106.5h-557zM414 227h274q86 0 142.5 47.5t56.5 120.5q0 71 -55.5 117.5t-141.5 46.5h-276v-332zM414 770h248 q83 0 136.5 45t53.5 113q0 69 -54 113t-139 44h-245v-315z" />
<glyph unicode="C" horiz-adv-x="1294" d="M90 655q0 186 90 344t245.5 250t338.5 92q305 0 485 -180l-170 -194q-135 118 -313 118q-111 0 -204 -57.5t-146.5 -156.5t-53.5 -216q0 -179 120 -303.5t300 -124.5q86 0 165 31.5t132 87.5l170 -188q-172 -187 -485 -187q-188 0 -343 92t-243 249t-88 343z" />
<glyph unicode="D" horiz-adv-x="1423" d="M158 0v1313h436q160 0 298 -49.5t235 -136t152.5 -209.5t55.5 -265q0 -188 -93.5 -337t-260.5 -232.5t-377 -83.5h-446zM420 242h174q211 0 339 113t128 302q0 187 -128.5 300.5t-340.5 113.5h-172v-829z" />
<glyph unicode="E" horiz-adv-x="1085" d="M158 0v1313h850v-240h-594v-291h512v-241h-512v-299h594v-242h-850z" />
<glyph unicode="F" horiz-adv-x="1062" d="M158 0v1313h831v-242h-575v-317h493v-242h-493v-512h-256z" />
<glyph unicode="G" horiz-adv-x="1382" d="M90 655q0 186 90 344t245.5 250t338.5 92q305 0 485 -180l-170 -194q-135 118 -313 118q-111 0 -204 -57.5t-146.5 -156.5t-53.5 -216q0 -179 120 -303.5t300 -124.5q118 0 222 52v370h256v-534q-191 -144 -496 -144q-188 0 -343 92t-243 249t-88 343z" />
<glyph unicode="H" horiz-adv-x="1452" d="M158 0v1313h256v-522h624v522h258v-1313h-258v551h-624v-551h-256z" />
<glyph unicode="I" horiz-adv-x="569" d="M158 0v1313h256v-1313h-256z" />
<glyph unicode="J" horiz-adv-x="954" d="M33 147l174 177q73 -97 172 -97q176 0 176 213v873h256v-860q0 -237 -118 -359.5t-306 -122.5q-116 0 -211 49.5t-143 126.5z" />
<glyph unicode="K" horiz-adv-x="1263" d="M158 0v1313h256v-541h125l370 541h289l-442 -645l473 -668h-311l-369 532h-135v-532h-256z" />
<glyph unicode="L" horiz-adv-x="1087" d="M158 0v1313h256v-1071h641v-242h-897z" />
<glyph unicode="M" horiz-adv-x="1703" d="M158 0v1313h293l417 -651l418 651h262v-1313h-256v913l-440 -665l-438 661v-909h-256z" />
<glyph unicode="N" horiz-adv-x="1452" d="M154 0v1313h276l612 -899v899h256v-1313h-276l-612 889v-889h-256z" />
<glyph unicode="O" horiz-adv-x="1538" d="M90 655q0 186 90.5 344t247 250t340.5 92q138 0 264 -54.5t217 -146.5t145 -219t54 -266t-54 -265.5t-145 -218t-217 -146t-264 -54.5t-263.5 54.5t-216.5 146t-144.5 218t-53.5 265.5zM362 655q0 -177 119.5 -302.5t286.5 -125.5q169 0 288.5 125t119.5 303t-119.5 304 t-288.5 126q-168 0 -287 -126t-119 -304z" />
<glyph unicode="P" horiz-adv-x="1220" d="M158 0v1313h467q238 0 382 -119t144 -315q0 -198 -145.5 -317.5t-384.5 -119.5h-207v-442h-256zM414 668h231q106 0 171 58t65 153q0 94 -65 151t-171 57h-231v-419z" />
<glyph unicode="Q" horiz-adv-x="1538" d="M90 655q0 186 90.5 344t247 250t340.5 92q138 0 264 -54.5t217 -146.5t145 -219t54 -266q0 -184 -90 -339t-242 -248l307 -168l-118 -203l-476 276q-20 -2 -61 -2q-138 0 -263.5 54.5t-216.5 146t-144.5 218t-53.5 265.5zM362 655q0 -177 119.5 -302.5t286.5 -125.5 q169 0 288.5 125t119.5 303t-119.5 304t-288.5 126q-168 0 -287 -126t-119 -304z" />
<glyph unicode="R" horiz-adv-x="1255" d="M158 0v1313h467q232 0 373 -113.5t141 -300.5q0 -133 -73 -231t-204 -146l305 -522h-297l-268 483h-188v-483h-256zM414 709h231q101 0 162 52t61 138q0 85 -61 136.5t-162 51.5h-231v-378z" />
<glyph unicode="S" horiz-adv-x="1150" d="M66 207l182 170q123 -164 334 -164q106 0 164.5 40.5t58.5 111.5q0 40 -23.5 72t-63.5 53.5t-92 40t-109 37t-114 40t-109 52.5t-92 70.5t-63.5 98.5t-23.5 132q0 167 134 273.5t345 106.5q156 0 280 -61t193 -160l-176 -174q-46 66 -128.5 110t-178.5 44q-91 0 -143 -36 t-52 -95q0 -47 38 -81.5t99 -57.5t134.5 -45.5t147 -54t134.5 -73.5t99 -113t38 -165q0 -180 -138.5 -294t-362.5 -114q-188 0 -314.5 64.5t-197.5 171.5z" />
<glyph unicode="T" horiz-adv-x="1089" d="M27 1073v240h1036v-240h-391v-1073h-256v1073h-389z" />
<glyph unicode="U" horiz-adv-x="1359" d="M143 535v778h256v-774q0 -140 78 -226t205 -86q126 0 202.5 85t76.5 225v776h256v-778q0 -254 -148 -409t-391 -155q-241 0 -388 155t-147 409z" />
<glyph unicode="V" horiz-adv-x="1353" d="M41 1313h283l360 -1034l360 1034h269l-486 -1313h-301z" />
<glyph unicode="W" horiz-adv-x="2082" d="M53 1313h283l289 -1016l262 1016h321l265 -1016l288 1016h269l-416 -1313h-320l-258 995l-258 -995h-309z" />
<glyph unicode="X" horiz-adv-x="1302" d="M41 0l455 670l-430 643h329l273 -414l282 414h289l-428 -631l451 -682h-320l-303 455l-311 -455h-287z" />
<glyph unicode="Y" horiz-adv-x="1275" d="M27 1313h284l332 -606l336 606h270l-483 -877v-436h-256v436z" />
<glyph unicode="Z" horiz-adv-x="1177" d="M82 0v242l668 831h-654v240h985v-240l-669 -831h684v-242h-1014z" />
<glyph unicode="[" horiz-adv-x="690" d="M172 -266v1675h465v-221h-215v-1233h215v-221h-465z" />
<glyph unicode="\" horiz-adv-x="878" d="M33 1313h256l557 -1313h-256z" />
<glyph unicode="]" horiz-adv-x="690" d="M53 -45h215v1233h-215v221h465v-1675h-465v221z" />
<glyph unicode="^" horiz-adv-x="1067" d="M102 657l332 656h209l324 -656h-222l-206 439l-213 -439h-224z" />
<glyph unicode="_" horiz-adv-x="907" d="M0 -41h907v-170h-907v170z" />
<glyph unicode="`" horiz-adv-x="819" d="M41 1409h295l201 -319h-228z" />
<glyph unicode="a" horiz-adv-x="1249" d="M82 489q0 223 134 372t337 149q188 0 299 -127v98h252v-981h-252v106q-116 -135 -299 -135q-198 0 -334.5 146.5t-136.5 371.5zM332 492q0 -120 74.5 -202.5t187.5 -82.5q111 0 184.5 82.5t73.5 202.5t-73 201t-185 81q-113 0 -187.5 -81.5t-74.5 -200.5z" />
<glyph unicode="b" horiz-adv-x="1249" d="M147 0v1409h250v-535q117 136 299 136q198 0 334.5 -146.5t136.5 -371.5q0 -223 -134 -372t-337 -149q-188 0 -299 127v-98h-250zM397 489q0 -119 74 -200.5t186 -81.5q113 0 187 81t74 201t-74 202.5t-187 82.5q-111 0 -185.5 -82.5t-74.5 -202.5z" />
<glyph unicode="c" horiz-adv-x="1013" d="M82 489q0 142 67.5 261.5t185.5 189.5t259 70q123 0 221.5 -39t165.5 -109l-143 -178q-93 90 -232 90q-121 0 -197.5 -81t-76.5 -201t77 -202.5t195 -82.5q146 0 242 96l127 -184q-60 -66 -160.5 -107t-214.5 -41q-107 0 -203 41t-164.5 110.5t-108.5 165.5t-40 201z" />
<glyph unicode="d" horiz-adv-x="1249" d="M82 489q0 223 134 372t337 149q188 0 299 -127v526h252v-1409h-252v106q-116 -135 -299 -135q-198 0 -334.5 146.5t-136.5 371.5zM332 492q0 -120 74.5 -202.5t187.5 -82.5q111 0 184.5 82.5t73.5 202.5t-73 201t-185 81q-113 0 -187.5 -81.5t-74.5 -200.5z" />
<glyph unicode="e" horiz-adv-x="1138" d="M82 489q0 142 64.5 261.5t178.5 189.5t253 70q210 0 351.5 -143.5t141.5 -356.5q0 -58 -6 -82h-727q19 -105 93.5 -170t186.5 -65q141 0 240 102l129 -170q-58 -68 -158.5 -111t-220.5 -43q-149 0 -270.5 70t-188.5 188.5t-67 259.5zM342 586h473q-21 103 -82.5 157 t-150.5 54q-92 0 -155 -57.5t-85 -153.5z" />
<glyph unicode="f" horiz-adv-x="798" d="M59 760v221h160v57q0 186 97 293t262 107q187 0 282 -103l-121 -188q-24 24 -61 39.5t-74 15.5q-64 0 -99.5 -41.5t-35.5 -120.5v-59h256v-221h-256v-760h-250v760h-160z" />
<glyph unicode="g" horiz-adv-x="1234" d="M82 512q0 211 133 351.5t324 140.5q189 0 299 -119v96h252v-913q0 -112 -30 -200t-79 -143t-117 -91t-137 -50t-145 -14q-278 0 -428 131l127 195q128 -97 286 -97q126 0 198.5 67t72.5 191v86q-116 -129 -299 -129q-192 0 -324.5 140t-132.5 358zM332 512 q0 -111 73 -186.5t181 -75.5t180 76t72 186t-72 186t-180 76t-181 -76t-73 -186z" />
<glyph unicode="h" d="M147 0v1409h250v-524q95 125 277 125q171 0 272 -112.5t101 -303.5v-594h-250v557q0 100 -54 158.5t-145 58.5q-93 0 -147 -58.5t-54 -158.5v-557h-250z" />
<glyph unicode="i" horiz-adv-x="542" d="M125 1260q0 60 42.5 103.5t102.5 43.5q61 0 104.5 -43.5t43.5 -103.5q0 -61 -43 -103.5t-105 -42.5q-60 0 -102.5 42.5t-42.5 103.5zM147 0v981h250v-981h-250z" />
<glyph unicode="j" horiz-adv-x="542" d="M-205 -342l117 184q53 -43 117 -43q54 0 86 41t32 117v1024h250v-1010q0 -186 -92.5 -293.5t-263.5 -107.5q-155 0 -246 88zM125 1260q0 60 42.5 103.5t102.5 43.5q61 0 104.5 -43.5t43.5 -103.5q0 -61 -43 -103.5t-105 -42.5q-60 0 -102.5 42.5t-42.5 103.5z" />
<glyph unicode="k" horiz-adv-x="1150" d="M147 0v1409h250v-782h119l252 354h305l-334 -455l363 -526h-314l-268 399h-123v-399h-250z" />
<glyph unicode="l" horiz-adv-x="542" d="M147 0v1409h250v-1409h-250z" />
<glyph unicode="m" horiz-adv-x="1808" d="M147 0v981h250v-104q45 63 115 98t156 35q107 0 188 -47t125 -134q48 80 126 130.5t187 50.5q172 0 274.5 -111t102.5 -305v-594h-250v557q0 100 -52 158.5t-140 58.5q-90 0 -142.5 -58.5t-52.5 -158.5v-557h-250v557q0 100 -52 158.5t-140 58.5q-90 0 -142.5 -58.5 t-52.5 -158.5v-557h-250z" />
<glyph unicode="n" d="M147 0v981h250v-96q95 125 277 125q171 0 272 -112.5t101 -303.5v-594h-250v557q0 100 -54 158.5t-145 58.5q-93 0 -147 -58.5t-54 -158.5v-557h-250z" />
<glyph unicode="o" d="M82 489q0 141 67.5 261t185 190t257.5 70t258 -70t186 -190t68 -261q0 -140 -68 -259.5t-186 -189t-258 -69.5t-257.5 69.5t-185 188.5t-67.5 260zM332 492q0 -120 74.5 -202.5t187.5 -82.5q111 0 184.5 82.5t73.5 202.5t-73 201t-185 81q-113 0 -187.5 -81.5 t-74.5 -200.5z" />
<glyph unicode="p" horiz-adv-x="1249" d="M147 -401v1382h250v-107q117 136 299 136q198 0 334.5 -146.5t136.5 -371.5q0 -223 -134 -372t-337 -149q-188 0 -299 127v-499h-250zM397 489q0 -119 74 -200.5t186 -81.5q113 0 187 81t74 201t-74 202.5t-187 82.5q-111 0 -185.5 -82.5t-74.5 -202.5z" />
<glyph unicode="q" horiz-adv-x="1249" d="M82 489q0 223 134 372t337 149q188 0 299 -127v98h252v-1382h-252v507q-116 -135 -299 -135q-198 0 -334.5 146.5t-136.5 371.5zM332 492q0 -120 74.5 -202.5t187.5 -82.5q111 0 184.5 82.5t73.5 202.5t-73 201t-185 81q-113 0 -187.5 -81.5t-74.5 -200.5z" />
<glyph unicode="r" horiz-adv-x="831" d="M147 0v981h250v-107q91 136 240 136q96 0 158 -49l-105 -238q-53 43 -129 43q-75 0 -119.5 -58.5t-44.5 -158.5v-549h-250z" />
<glyph unicode="s" horiz-adv-x="942" d="M49 137l139 160q113 -125 287 -125q70 0 108 27.5t38 74.5q0 28 -18 50t-48.5 37t-70 28t-83 26.5t-87.5 29.5t-83.5 40t-70 54.5t-48.5 76t-18 101.5q0 121 99.5 207t277.5 86q131 0 232 -42.5t157 -119.5l-141 -148q-92 109 -242 109q-63 0 -100 -25.5t-37 -66.5 q0 -34 29 -58.5t75.5 -40t103 -30.5t113 -37.5t103 -54t75.5 -87t29 -130.5q0 -131 -107.5 -219.5t-299.5 -88.5q-135 0 -240.5 44.5t-171.5 121.5z" />
<glyph unicode="t" horiz-adv-x="843" d="M45 760v221h174v254h250v-254h266v-221h-264v-416q0 -137 113 -137q72 0 114 49l113 -186q-103 -99 -268 -99q-152 0 -239 94t-87 271v424h-172z" />
<glyph unicode="u" d="M133 432v549h250v-530q0 -107 57.5 -173.5t151.5 -66.5t151.5 66.5t57.5 173.5v530h250v-549q0 -206 -126 -331.5t-333 -125.5t-333 125.5t-126 331.5z" />
<glyph unicode="v" horiz-adv-x="1099" d="M33 981h274l250 -758l254 758h256l-354 -981h-324z" />
<glyph unicode="w" horiz-adv-x="1667" d="M47 981h266l183 -707l198 707h273l202 -711l185 711h268l-303 -981h-311l-191 666l-184 -666h-285z" />
<glyph unicode="x" horiz-adv-x="1114" d="M33 0l373 496l-359 485h309l213 -289l217 289h281l-358 -477l372 -504h-311l-227 307l-232 -307h-278z" />
<glyph unicode="y" horiz-adv-x="1099" d="M18 981h277l285 -676l235 676h252l-401 -1106q-108 -305 -365 -305q-75 0 -147 29t-121 75l112 197q69 -66 158 -66q53 0 89.5 35.5t66.5 120.5l8 25z" />
<glyph unicode="z" horiz-adv-x="993" d="M84 0v221l485 539h-467v221h793v-221l-487 -539h501v-221h-825z" />
<glyph unicode="{" horiz-adv-x="704" d="M51 463v219q86 0 121 35t35 119v284q0 130 78.5 209.5t234.5 79.5h131v-221h-73q-121 0 -121 -121v-274q0 -102 -47 -157t-127 -65q80 -10 127 -64t47 -157v-274q0 -121 121 -121h73v-221h-131q-156 0 -234.5 79.5t-78.5 209.5v284q0 84 -35.5 120t-120.5 36z" />
<glyph unicode="|" horiz-adv-x="583" d="M172 -401v1810h242v-1810h-242z" />
<glyph unicode="}" horiz-adv-x="704" d="M53 -45h74q121 0 121 121v274q0 103 48 157t128 64q-80 10 -128 65t-48 157v274q0 121 -121 121h-74v221h131q157 0 235.5 -79.5t78.5 -209.5v-284q0 -84 34.5 -119t120.5 -35v-219q-85 0 -120 -36t-35 -120v-284q0 -130 -78.5 -209.5t-235.5 -79.5h-131v221z" />
<glyph unicode="~" horiz-adv-x="1067" d="M92 524v230q111 75 232 75q62 0 121.5 -16.5t98.5 -36.5t93 -36.5t108 -16.5q149 0 230 63v-229q-92 -61 -225 -61q-61 0 -120 16.5t-99.5 36.5t-95.5 36.5t-109 16.5q-148 0 -234 -78z" />
<glyph unicode="&#xa1;" horiz-adv-x="604" d="M139 848q0 66 48.5 114t115.5 48t114.5 -48t47.5 -114q0 -68 -47.5 -116t-114.5 -48t-115.5 48t-48.5 116zM166 -330l35 844h200l35 -844h-270z" />
<glyph unicode="&#xa2;" horiz-adv-x="1026" d="M82 653q0 184 111 325t284 181v174h211v-168q182 -27 293 -141l-143 -178q-93 90 -232 90q-121 0 -197.5 -80.5t-76.5 -202.5q0 -120 76.5 -201t195.5 -81q148 0 242 94l127 -182q-46 -54 -121 -91t-164 -51v-170h-211v179q-173 40 -284 180t-111 323z" />
<glyph unicode="&#xa3;" horiz-adv-x="1173" d="M131 0v227h49q62 0 89.5 40t27.5 122v172h-139v168h139v182q0 191 110 310.5t310 119.5q244 0 375 -174l-154 -161q-83 100 -207 100q-91 0 -137.5 -56t-46.5 -153v-168h377v-168h-377v-180q0 -67 -27 -106.5t-71 -47.5h636v-227h-954z" />
<glyph unicode="&#xa4;" d="M53 254l135 133q-65 111 -65 238q0 128 65 239l-135 131l160 162l133 -131q112 72 246 72q133 0 248 -72l133 131l157 -162l-135 -133q62 -111 62 -237q0 -125 -62 -236l135 -135l-157 -160l-135 131q-114 -71 -246 -71q-130 0 -246 69l-133 -129zM342 625 q0 -104 72.5 -178t177.5 -74q101 0 173.5 74.5t72.5 177.5q0 106 -72.5 181t-173.5 75q-105 0 -177.5 -75t-72.5 -181z" />
<glyph unicode="&#xa5;" horiz-adv-x="1275" d="M27 1313h284l332 -637l336 637h270l-268 -486h131v-165h-223l-88 -158h311v-168h-346v-336h-256v336h-346v168h311l-88 158h-223v165h131z" />
<glyph unicode="&#xa6;" horiz-adv-x="583" d="M172 346h242v-747h-242v747zM172 662v747h242v-747h-242z" />
<glyph unicode="&#xa7;" horiz-adv-x="1464" d="M209 520q0 70 37 132t108 102q-92 85 -92 207q0 167 134 273.5t345 106.5q156 0 280 -61t193 -160l-176 -174q-46 66 -129.5 110t-185.5 44q-86 0 -136 -33.5t-50 -91.5q0 -35 25.5 -62.5t68.5 -47t98.5 -36.5t117.5 -34.5t123.5 -38t117 -51t98.5 -68.5t68.5 -94.5 t25.5 -126.5q0 -152 -129 -246q76 -79 76 -193q0 -180 -139 -293.5t-363 -113.5q-355 0 -512 235l182 170q123 -163 342 -163q103 0 159 39t56 106q0 38 -25.5 67.5t-68.5 50.5t-98.5 38.5t-117.5 35.5t-123.5 38.5t-117 49.5t-98.5 66.5t-68.5 92.5t-25.5 124zM483 528 q0 -33 20 -60t51 -45t80 -35.5t94 -30t106.5 -30.5t105.5 -34q66 41 66 110q0 40 -24.5 71t-75 54.5t-98.5 39t-125 38t-124 39.5q-76 -40 -76 -117z" />
<glyph unicode="&#xa8;" horiz-adv-x="819" d="M90 1247q0 56 38 95.5t93 39.5t95 -40t40 -95t-39.5 -94t-95.5 -39q-55 0 -93 38.5t-38 94.5zM463 1247q0 56 38 95.5t93 39.5q56 0 95.5 -40t39.5 -95t-39.5 -94t-95.5 -39q-55 0 -93 38.5t-38 94.5z" />
<glyph unicode="&#xa9;" horiz-adv-x="1667" d="M84 655q0 152 59.5 291t160.5 239.5t240 160t292 59.5q151 0 289 -59.5t238.5 -160t160 -239.5t59.5 -291t-59.5 -290t-160 -238t-238.5 -159.5t-289 -59.5q-153 0 -292 59t-240 159.5t-160.5 238.5t-59.5 290zM246 659q0 -121 46.5 -231t125.5 -189t188.5 -126 t229.5 -47q121 0 231 47t189.5 126t126.5 189t47 231q0 160 -79.5 297t-216.5 217t-298 80q-160 0 -296 -80t-215 -217t-79 -297zM412 659q0 177 122 301.5t297 124.5q203 0 322 -122l-115 -144q-44 40 -89.5 58t-106.5 18q-99 0 -163.5 -68.5t-64.5 -167.5 q0 -100 65.5 -167.5t166.5 -67.5q115 0 201 80l102 -148q-53 -58 -134 -90.5t-175 -32.5q-182 0 -305 124t-123 302z" />
<glyph unicode="&#xaa;" horiz-adv-x="792" d="M37 981q0 149 83.5 248.5t205.5 99.5q129 0 192 -104v88h199v-656h-199v91q-64 -105 -190 -105q-119 0 -205 94t-86 244zM238 981q0 -66 39.5 -110t99.5 -44t99.5 44t39.5 110t-39.5 110t-99.5 44t-99.5 -44t-39.5 -110z" />
<glyph unicode="&#xab;" horiz-adv-x="1089" d="M94 508l322 403l153 -127l-227 -276l227 -277l-153 -127zM520 508l322 403l153 -127l-227 -276l227 -277l-153 -127z" />
<glyph unicode="&#xac;" horiz-adv-x="1067" d="M92 545v227h883v-512h-227v285h-656z" />
<glyph unicode="&#xad;" horiz-adv-x="667" d="M82 397v213h504v-213h-504z" />
<glyph unicode="&#xae;" horiz-adv-x="1202" d="M63 971q0 147 72.5 272t196.5 197.5t270 72.5q147 0 270.5 -72.5t195 -197.5t71.5 -272t-71 -271t-194.5 -196t-271.5 -72q-146 0 -270 72.5t-196.5 196.5t-72.5 270zM197 973q0 -171 118.5 -291.5t288.5 -120.5t289 120t119 292q0 170 -119.5 291.5t-288.5 121.5 q-170 0 -288.5 -121t-118.5 -292zM387 715v530h234q97 0 155 -40.5t58 -123.5q0 -114 -117 -147l137 -219h-166l-119 207h-32v-207h-150zM535 1020h71q76 0 76 57q0 58 -76 58h-71v-115z" />
<glyph unicode="&#xaf;" horiz-adv-x="819" d="M104 1165v185h609v-185h-609z" />
<glyph unicode="&#xb0;" horiz-adv-x="770" d="M27 991q0 148 100 248t258 100t258 -100t100 -248q0 -142 -105 -243t-255 -101q-145 0 -250.5 101.5t-105.5 242.5zM203 991q0 -83 54 -133.5t128 -50.5q77 0 129.5 51t52.5 133q0 86 -54 136.5t-128 50.5q-75 0 -128.5 -51t-53.5 -136z" />
<glyph unicode="&#xb1;" horiz-adv-x="1067" d="M92 0v227h883v-227h-883zM92 688v227h324v322h235v-322h324v-227h-324v-321h-235v321h-324z" />
<glyph unicode="&#xb2;" horiz-adv-x="606" d="M47 1163q28 71 95 118.5t169 47.5q106 0 170 -60.5t64 -148.5q0 -65 -31 -118.5t-108 -106.5l-119 -96h258v-142h-477v134l231 184q43 34 59.5 61.5t16.5 59.5q0 35 -23 58.5t-63 23.5q-79 0 -127 -95z" />
<glyph unicode="&#xb3;" horiz-adv-x="606" d="M49 752l113 108q52 -65 123 -65q46 0 71 22.5t25 59.5q0 42 -31.5 65t-87.5 23h-72v73l154 131h-252v144h440v-121l-159 -131q178 -37 178 -193q0 -96 -70.5 -160.5t-193.5 -64.5q-83 0 -143.5 29.5t-94.5 79.5z" />
<glyph unicode="&#xb4;" horiz-adv-x="819" d="M283 1090l200 319h295l-268 -319h-227z" />
<glyph unicode="&#xb5;" horiz-adv-x="1189" d="M139 -344v1325h250v-530q0 -107 57.5 -173.5t151.5 -66.5t151.5 66.5t57.5 173.5v530h250v-549q0 -206 -126 -331.5t-333 -125.5q-116 0 -209 41v-360h-250z" />
<glyph unicode="&#xb6;" horiz-adv-x="1187" d="M88 907q0 186 124 296t339 110h479v-1714h-180v1493h-111v-1493h-243v886q-189 20 -298.5 136t-109.5 286z" />
<glyph unicode="&#xb7;" horiz-adv-x="819" d="M262 612q0 60 43 104t103 44q61 0 104 -44t43 -104t-43 -102.5t-104 -42.5q-60 0 -103 42.5t-43 102.5z" />
<glyph unicode="&#xb8;" horiz-adv-x="819" d="M162 -303l194 340h164l-155 -422z" />
<glyph unicode="&#xb9;" horiz-adv-x="606" d="M55 1143l183 170h184v-656h-180v461l-90 -90z" />
<glyph unicode="&#xba;" horiz-adv-x="755" d="M37 985q0 142 100 244t240 102t240 -102t100 -244q0 -141 -100 -241.5t-240 -100.5t-240 100.5t-100 241.5zM238 983q0 -65 39.5 -108.5t99.5 -43.5t99.5 43.5t39.5 108.5q0 66 -39.5 111t-99.5 45t-99.5 -45t-39.5 -111z" />
<glyph unicode="&#xbb;" horiz-adv-x="1089" d="M94 231l228 277l-228 276l154 127l321 -403l-321 -404zM520 231l228 277l-228 276l154 127l321 -403l-321 -404z" />
<glyph unicode="&#xbc;" horiz-adv-x="1355" d="M55 1143l183 170h184v-656h-180v461l-90 -90zM170 0l883 1313h194l-880 -1313h-197zM772 102v150l309 403h164v-403h84v-150h-84v-102h-160v102h-313zM903 252h182v240z" />
<glyph unicode="&#xbd;" horiz-adv-x="1355" d="M55 1143l183 170h184v-656h-180v461l-90 -90zM119 0l882 1313h195l-881 -1313h-196zM797 506q28 71 95 118.5t169 47.5q105 0 169 -60.5t64 -148.5q0 -65 -31 -118.5t-108 -106.5l-119 -97h258v-141h-477v133l232 184q43 34 59 61.5t16 59.5q0 35 -23 58.5t-63 23.5 q-79 0 -127 -94z" />
<glyph unicode="&#xbe;" horiz-adv-x="1355" d="M49 752l113 108q52 -65 123 -65q46 0 71 22.5t25 59.5q0 42 -31.5 65t-87.5 23h-72v73l154 131h-252v144h440v-121l-159 -131q178 -37 178 -193q0 -96 -70.5 -160.5t-193.5 -64.5q-83 0 -143.5 29.5t-94.5 79.5zM186 0l883 1313h195l-881 -1313h-197zM772 102v150 l309 403h164v-403h84v-150h-84v-102h-160v102h-313zM903 252h182v240z" />
<glyph unicode="&#xbf;" horiz-adv-x="991" d="M123 29q0 123 61 215.5t215 193.5l140 94l116 -180l-149 -102q-69 -49 -101 -96.5t-32 -108.5q0 -73 49.5 -119.5t126.5 -46.5q128 0 239 148l164 -150q-64 -102 -170.5 -167.5t-244.5 -65.5q-130 0 -226 55.5t-142 141.5t-46 188zM373 848q0 66 48.5 114t115.5 48 t114 -48t47 -114q0 -68 -47 -116t-114 -48t-115.5 48t-48.5 116z" />
<glyph unicode="&#xc0;" horiz-adv-x="1421" d="M33 0l528 1313h299l529 -1313h-285l-113 295h-575l-115 -295h-268zM342 1741h295l201 -320h-228zM502 522h401l-201 520z" />
<glyph unicode="&#xc1;" horiz-adv-x="1421" d="M33 0l528 1313h299l529 -1313h-285l-113 295h-575l-115 -295h-268zM502 522h401l-201 520zM584 1421l200 320h295l-268 -320h-227z" />
<glyph unicode="&#xc2;" horiz-adv-x="1421" d="M33 0l528 1313h299l529 -1313h-285l-113 295h-575l-115 -295h-268zM354 1421l244 320h227l242 -320h-238l-118 174l-119 -174h-238zM502 522h401l-201 520z" />
<glyph unicode="&#xc3;" horiz-adv-x="1421" d="M33 0l528 1313h299l529 -1313h-285l-113 295h-575l-115 -295h-268zM340 1532q74 180 211 180q50 0 100.5 -23.5t96.5 -47t86 -23.5q71 0 124 100l123 -102q-74 -178 -211 -178q-50 0 -100.5 23.5t-97 47t-86.5 23.5q-64 0 -123 -100zM502 522h401l-201 520z" />
<glyph unicode="&#xc4;" horiz-adv-x="1421" d="M33 0l528 1313h299l529 -1313h-285l-113 295h-575l-115 -295h-268zM391 1579q0 56 38 95.5t93 39.5q56 0 95.5 -40t39.5 -95t-39.5 -94t-95.5 -39q-55 0 -93 38.5t-38 94.5zM502 522h401l-201 520zM764 1579q0 56 38 95.5t93 39.5t95 -40t40 -95t-39.5 -94t-95.5 -39 q-55 0 -93 38.5t-38 94.5z" />
<glyph unicode="&#xc5;" horiz-adv-x="1421" d="M33 0l528 1313h299l529 -1313h-285l-113 295h-575l-115 -295h-268zM465 1638q0 99 71 168.5t175 69.5t174.5 -69.5t70.5 -168.5t-70.5 -168t-174.5 -69t-175 69t-71 168zM502 522h401l-201 520zM606 1638q0 -45 32 -76.5t75 -31.5t74.5 31.5t31.5 76.5q0 46 -31.5 77.5 t-74.5 31.5q-44 0 -75.5 -31.5t-31.5 -77.5z" />
<glyph unicode="&#xc6;" horiz-adv-x="1732" d="M20 0l588 1313h1047v-240h-553v-291h471v-241h-471v-299h553v-242h-809v295h-428l-129 -295h-269zM518 522h328v568h-78z" />
<glyph unicode="&#xc7;" horiz-adv-x="1294" d="M90 655q0 186 90 344t245.5 250t338.5 92q305 0 485 -180l-170 -194q-135 118 -313 118q-111 0 -204 -57.5t-146.5 -156.5t-53.5 -216q0 -179 120 -303.5t300 -124.5q86 0 165 31.5t132 87.5l170 -188q-154 -167 -420 -185l-133 -358l-202 82l161 283q-162 25 -291 120.5 t-201.5 241t-72.5 313.5z" />
<glyph unicode="&#xc8;" horiz-adv-x="1085" d="M158 0v1313h850v-240h-594v-291h512v-241h-512v-299h594v-242h-850zM207 1741h295l200 -320h-227z" />
<glyph unicode="&#xc9;" horiz-adv-x="1085" d="M158 0v1313h850v-240h-594v-291h512v-241h-512v-299h594v-242h-850zM449 1421l200 320h295l-268 -320h-227z" />
<glyph unicode="&#xca;" horiz-adv-x="1085" d="M158 0v1313h850v-240h-594v-291h512v-241h-512v-299h594v-242h-850zM219 1421l244 320h227l242 -320h-238l-119 174l-118 -174h-238z" />
<glyph unicode="&#xcb;" horiz-adv-x="1085" d="M158 0v1313h850v-240h-594v-291h512v-241h-512v-299h594v-242h-850zM256 1579q0 56 38 95.5t93 39.5t95 -40t40 -95t-39.5 -94t-95.5 -39q-55 0 -93 38.5t-38 94.5zM629 1579q0 56 38 95.5t93 39.5q56 0 95.5 -40t39.5 -95t-39.5 -94t-95.5 -39q-55 0 -93 38.5t-38 94.5z " />
<glyph unicode="&#xcc;" horiz-adv-x="569" d="M-84 1741h295l201 -320h-228zM158 0v1313h256v-1313h-256z" />
<glyph unicode="&#xcd;" horiz-adv-x="569" d="M158 0v1313h256v-1313h-256zM158 1421l200 320h295l-268 -320h-227z" />
<glyph unicode="&#xce;" horiz-adv-x="569" d="M-72 1421l244 320h227l242 -320h-238l-118 174l-119 -174h-238zM158 0v1313h256v-1313h-256z" />
<glyph unicode="&#xcf;" horiz-adv-x="569" d="M-35 1579q0 56 38 95.5t93 39.5q56 0 95.5 -40t39.5 -95t-39.5 -94t-95.5 -39q-55 0 -93 38.5t-38 94.5zM158 0v1313h256v-1313h-256zM338 1579q0 56 38 95.5t93 39.5t95 -40t40 -95t-39.5 -94t-95.5 -39q-55 0 -93 38.5t-38 94.5z" />
<glyph unicode="&#xd0;" horiz-adv-x="1423" d="M23 578v210h135v525h436q160 0 298 -49.5t235 -136t152.5 -209.5t55.5 -265q0 -188 -93.5 -337t-260.5 -232.5t-377 -83.5h-446v578h-135zM420 242h174q211 0 339 113t128 302q0 187 -128.5 300.5t-340.5 113.5h-172v-283h256v-210h-256v-336z" />
<glyph unicode="&#xd1;" horiz-adv-x="1452" d="M154 0v1313h276l612 -899v899h256v-1313h-276l-612 889v-889h-256zM356 1532q74 180 211 180q50 0 100.5 -23.5t96.5 -47t86 -23.5q72 0 125 100l123 -102q-74 -178 -211 -178q-50 0 -101 23.5t-97.5 47t-86.5 23.5q-64 0 -123 -100z" />
<glyph unicode="&#xd2;" horiz-adv-x="1538" d="M90 655q0 186 90.5 344t247 250t340.5 92q138 0 264 -54.5t217 -146.5t145 -219t54 -266t-54 -265.5t-145 -218t-217 -146t-264 -54.5t-263.5 54.5t-216.5 146t-144.5 218t-53.5 265.5zM362 655q0 -177 119.5 -302.5t286.5 -125.5q169 0 288.5 125t119.5 303t-119.5 304 t-288.5 126q-168 0 -287 -126t-119 -304zM399 1741h295l201 -320h-227z" />
<glyph unicode="&#xd3;" horiz-adv-x="1538" d="M90 655q0 186 90.5 344t247 250t340.5 92q138 0 264 -54.5t217 -146.5t145 -219t54 -266t-54 -265.5t-145 -218t-217 -146t-264 -54.5t-263.5 54.5t-216.5 146t-144.5 218t-53.5 265.5zM362 655q0 -177 119.5 -302.5t286.5 -125.5q169 0 288.5 125t119.5 303t-119.5 304 t-288.5 126q-168 0 -287 -126t-119 -304zM641 1421l201 320h295l-269 -320h-227z" />
<glyph unicode="&#xd4;" horiz-adv-x="1538" d="M90 655q0 186 90.5 344t247 250t340.5 92q138 0 264 -54.5t217 -146.5t145 -219t54 -266t-54 -265.5t-145 -218t-217 -146t-264 -54.5t-263.5 54.5t-216.5 146t-144.5 218t-53.5 265.5zM362 655q0 -177 119.5 -302.5t286.5 -125.5q169 0 288.5 125t119.5 303t-119.5 304 t-288.5 126q-168 0 -287 -126t-119 -304zM412 1421l243 320h228l241 -320h-237l-119 174l-119 -174h-237z" />
<glyph unicode="&#xd5;" horiz-adv-x="1538" d="M90 655q0 186 90.5 344t247 250t340.5 92q138 0 264 -54.5t217 -146.5t145 -219t54 -266t-54 -265.5t-145 -218t-217 -146t-264 -54.5t-263.5 54.5t-216.5 146t-144.5 218t-53.5 265.5zM362 655q0 -177 119.5 -302.5t286.5 -125.5q169 0 288.5 125t119.5 303t-119.5 304 t-288.5 126q-168 0 -287 -126t-119 -304zM397 1532q74 180 211 180q50 0 100.5 -23.5t96.5 -47t86 -23.5q72 0 125 100l123 -102q-74 -178 -211 -178q-50 0 -101 23.5t-97.5 47t-86.5 23.5q-64 0 -123 -100z" />
<glyph unicode="&#xd6;" horiz-adv-x="1538" d="M90 655q0 186 90.5 344t247 250t340.5 92q138 0 264 -54.5t217 -146.5t145 -219t54 -266t-54 -265.5t-145 -218t-217 -146t-264 -54.5t-263.5 54.5t-216.5 146t-144.5 218t-53.5 265.5zM362 655q0 -177 119.5 -302.5t286.5 -125.5q169 0 288.5 125t119.5 303t-119.5 304 t-288.5 126q-168 0 -287 -126t-119 -304zM449 1579q0 56 38 95.5t93 39.5q56 0 95.5 -40t39.5 -95t-39.5 -94t-95.5 -39q-55 0 -93 38.5t-38 94.5zM821 1579q0 56 38 95.5t93 39.5q56 0 95.5 -40t39.5 -95t-39.5 -94t-95.5 -39q-55 0 -93 38.5t-38 94.5z" />
<glyph unicode="&#xd7;" horiz-adv-x="1067" d="M119 410l248 247l-242 244l166 168l244 -244l247 248l168 -168l-248 -248l244 -243l-168 -168l-243 246l-248 -248z" />
<glyph unicode="&#xd8;" horiz-adv-x="1538" d="M90 655q0 186 90.5 344t247 250t340.5 92q162 0 305 -73l96 141l146 -94l-98 -146q108 -96 169.5 -229.5t61.5 -284.5q0 -139 -54 -265.5t-145 -218t-217 -146t-264 -54.5q-163 0 -313 78l-99 -145l-145 94l102 149q-105 97 -164 228.5t-59 279.5zM362 655 q0 -161 103 -282l461 680q-75 32 -158 32q-168 0 -287 -126t-119 -304zM602 264q82 -37 166 -37q169 0 288.5 125t119.5 303q0 171 -109 293z" />
<glyph unicode="&#xd9;" horiz-adv-x="1359" d="M143 535v778h256v-774q0 -140 78 -226t205 -86q126 0 202.5 85t76.5 225v776h256v-778q0 -254 -148 -409t-391 -155q-241 0 -388 155t-147 409zM311 1741h295l201 -320h-227z" />
<glyph unicode="&#xda;" horiz-adv-x="1359" d="M143 535v778h256v-774q0 -140 78 -226t205 -86q126 0 202.5 85t76.5 225v776h256v-778q0 -254 -148 -409t-391 -155q-241 0 -388 155t-147 409zM553 1421l201 320h295l-269 -320h-227z" />
<glyph unicode="&#xdb;" horiz-adv-x="1359" d="M143 535v778h256v-774q0 -140 78 -226t205 -86q126 0 202.5 85t76.5 225v776h256v-778q0 -254 -148 -409t-391 -155q-241 0 -388 155t-147 409zM324 1421l243 320h228l241 -320h-237l-119 174l-119 -174h-237z" />
<glyph unicode="&#xdc;" horiz-adv-x="1359" d="M143 535v778h256v-774q0 -140 78 -226t205 -86q126 0 202.5 85t76.5 225v776h256v-778q0 -254 -148 -409t-391 -155q-241 0 -388 155t-147 409zM360 1579q0 56 38.5 95.5t93.5 39.5q56 0 95.5 -40t39.5 -95t-39.5 -94t-95.5 -39q-55 0 -93.5 38.5t-38.5 94.5zM733 1579 q0 56 38 95.5t93 39.5q56 0 95.5 -40t39.5 -95t-39.5 -94t-95.5 -39q-55 0 -93 38.5t-38 94.5z" />
<glyph unicode="&#xdd;" horiz-adv-x="1275" d="M27 1313h284l332 -606l336 606h270l-483 -877v-436h-256v436zM512 1421l201 320h295l-269 -320h-227z" />
<glyph unicode="&#xde;" horiz-adv-x="1220" d="M158 0v1313h256v-207h211q238 0 382 -119t144 -315q0 -198 -145 -317t-385 -119h-207v-236h-256zM414 461h231q106 0 171 58t65 153q0 94 -65 151.5t-171 57.5h-231v-420z" />
<glyph unicode="&#xdf;" horiz-adv-x="1206" d="M154 0v969q0 215 121 342t325 127q198 0 320 -114.5t122 -291.5q0 -166 -137 -266q219 -109 219 -358q0 -195 -125 -316t-315 -121q-120 0 -192 35l57 219q49 -18 108 -18q95 0 156 58.5t61 152.5q0 100 -64.5 159.5t-184.5 59.5h-88v207h73q88 0 135.5 52.5t47.5 125.5 q0 79 -50 129.5t-141 50.5q-94 0 -146.5 -58t-52.5 -173v-971h-249z" />
<glyph unicode="&#xe0;" horiz-adv-x="1249" d="M82 489q0 223 134 372t337 149q188 0 299 -127v98h252v-981h-252v106q-116 -135 -299 -135q-198 0 -334.5 146.5t-136.5 371.5zM244 1409h295l200 -319h-227zM332 492q0 -120 74.5 -202.5t187.5 -82.5q111 0 184.5 82.5t73.5 202.5t-73 201t-185 81q-113 0 -187.5 -81.5 t-74.5 -200.5z" />
<glyph unicode="&#xe1;" horiz-adv-x="1249" d="M82 489q0 223 134 372t337 149q188 0 299 -127v98h252v-981h-252v106q-116 -135 -299 -135q-198 0 -334.5 146.5t-136.5 371.5zM332 492q0 -120 74.5 -202.5t187.5 -82.5q111 0 184.5 82.5t73.5 202.5t-73 201t-185 81q-113 0 -187.5 -81.5t-74.5 -200.5zM485 1090 l201 319h295l-268 -319h-228z" />
<glyph unicode="&#xe2;" horiz-adv-x="1249" d="M82 489q0 223 134 372t337 149q188 0 299 -127v98h252v-981h-252v106q-116 -135 -299 -135q-198 0 -334.5 146.5t-136.5 371.5zM256 1090l244 319h227l242 -319h-238l-119 174l-118 -174h-238zM332 492q0 -120 74.5 -202.5t187.5 -82.5q111 0 184.5 82.5t73.5 202.5 t-73 201t-185 81q-113 0 -187.5 -81.5t-74.5 -200.5z" />
<glyph unicode="&#xe3;" horiz-adv-x="1249" d="M82 489q0 223 134 372t337 149q188 0 299 -127v98h252v-981h-252v106q-116 -135 -299 -135q-198 0 -334.5 146.5t-136.5 371.5zM242 1200q74 180 211 180q50 0 100 -23.5t96 -47t86 -23.5q72 0 125 100l123 -102q-74 -178 -211 -178q-50 0 -101 23.5t-97.5 47t-86.5 23.5 q-63 0 -122 -100zM332 492q0 -120 74.5 -202.5t187.5 -82.5q111 0 184.5 82.5t73.5 202.5t-73 201t-185 81q-113 0 -187.5 -81.5t-74.5 -200.5z" />
<glyph unicode="&#xe4;" horiz-adv-x="1249" d="M82 489q0 223 134 372t337 149q188 0 299 -127v98h252v-981h-252v106q-116 -135 -299 -135q-198 0 -334.5 146.5t-136.5 371.5zM293 1247q0 56 38 95.5t93 39.5q56 0 95.5 -40t39.5 -95t-39.5 -94t-95.5 -39q-55 0 -93 38.5t-38 94.5zM332 492q0 -120 74.5 -202.5 t187.5 -82.5q111 0 184.5 82.5t73.5 202.5t-73 201t-185 81q-113 0 -187.5 -81.5t-74.5 -200.5zM666 1247q0 56 38 95.5t93 39.5t95 -40t40 -95t-39.5 -94t-95.5 -39q-55 0 -93 38.5t-38 94.5z" />
<glyph unicode="&#xe5;" horiz-adv-x="1249" d="M82 489q0 223 134 372t337 149q188 0 299 -127v98h252v-981h-252v106q-116 -135 -299 -135q-198 0 -334.5 146.5t-136.5 371.5zM332 492q0 -120 74.5 -202.5t187.5 -82.5q111 0 184.5 82.5t73.5 202.5t-73 201t-185 81q-113 0 -187.5 -81.5t-74.5 -200.5zM367 1307 q0 99 70.5 168t174.5 69t175 -69t71 -168t-71 -168.5t-175 -69.5t-174.5 69.5t-70.5 168.5zM508 1307q0 -45 31.5 -77t74.5 -32t75 32t32 77q0 46 -31.5 77t-75.5 31t-75 -31t-31 -77z" />
<glyph unicode="&#xe6;" horiz-adv-x="1896" d="M82 489q0 223 134 372t337 149q189 0 299 -136v107h238v-104q111 133 286 133q88 0 170.5 -39t144.5 -104.5t99 -159t37 -197.5q0 -50 -4 -82h-727q19 -104 91.5 -169.5t176.5 -65.5q151 0 250 102l131 -170q-58 -65 -161 -109.5t-202 -44.5q-179 0 -292 135v-106h-238 v115q-111 -144 -299 -144q-198 0 -334.5 146.5t-136.5 371.5zM332 492q0 -120 74.5 -202.5t187.5 -82.5q111 0 184.5 82.5t73.5 202.5t-73 201t-185 81q-113 0 -187.5 -81.5t-74.5 -200.5zM1100 586h471q-21 102 -83 156.5t-151 54.5q-90 0 -152.5 -57.5t-84.5 -153.5z" />
<glyph unicode="&#xe7;" horiz-adv-x="1013" d="M82 489q0 142 67.5 261.5t185.5 189.5t259 70q123 0 221.5 -39t165.5 -109l-143 -178q-93 90 -232 90q-121 0 -197.5 -81t-76.5 -201t77 -202.5t195 -82.5q146 0 242 96l127 -184q-50 -56 -130.5 -95t-174.5 -49l-133 -360l-203 82l164 285q-181 35 -297.5 177.5 t-116.5 329.5z" />
<glyph unicode="&#xe8;" horiz-adv-x="1138" d="M82 489q0 142 64.5 261.5t178.5 189.5t253 70q210 0 351.5 -143.5t141.5 -356.5q0 -58 -6 -82h-727q19 -105 93.5 -170t186.5 -65q141 0 240 102l129 -170q-58 -68 -158.5 -111t-220.5 -43q-149 0 -270.5 70t-188.5 188.5t-67 259.5zM201 1409h295l200 -319h-227z M342 586h473q-21 103 -82.5 157t-150.5 54q-92 0 -155 -57.5t-85 -153.5z" />
<glyph unicode="&#xe9;" horiz-adv-x="1138" d="M82 489q0 142 64.5 261.5t178.5 189.5t253 70q210 0 351.5 -143.5t141.5 -356.5q0 -58 -6 -82h-727q19 -105 93.5 -170t186.5 -65q141 0 240 102l129 -170q-58 -68 -158.5 -111t-220.5 -43q-149 0 -270.5 70t-188.5 188.5t-67 259.5zM342 586h473q-21 103 -82.5 157 t-150.5 54q-92 0 -155 -57.5t-85 -153.5zM442 1090l201 319h295l-268 -319h-228z" />
<glyph unicode="&#xea;" horiz-adv-x="1138" d="M82 489q0 142 64.5 261.5t178.5 189.5t253 70q210 0 351.5 -143.5t141.5 -356.5q0 -58 -6 -82h-727q19 -105 93.5 -170t186.5 -65q141 0 240 102l129 -170q-58 -68 -158.5 -111t-220.5 -43q-149 0 -270.5 70t-188.5 188.5t-67 259.5zM213 1090l244 319h227l242 -319h-238 l-119 174l-118 -174h-238zM342 586h473q-21 103 -82.5 157t-150.5 54q-92 0 -155 -57.5t-85 -153.5z" />
<glyph unicode="&#xeb;" horiz-adv-x="1138" d="M82 489q0 142 64.5 261.5t178.5 189.5t253 70q210 0 351.5 -143.5t141.5 -356.5q0 -58 -6 -82h-727q19 -105 93.5 -170t186.5 -65q141 0 240 102l129 -170q-58 -68 -158.5 -111t-220.5 -43q-149 0 -270.5 70t-188.5 188.5t-67 259.5zM250 1247q0 56 38 95.5t93 39.5 t95 -40t40 -95t-39.5 -94t-95.5 -39q-55 0 -93 38.5t-38 94.5zM342 586h473q-21 103 -82.5 157t-150.5 54q-92 0 -155 -57.5t-85 -153.5zM623 1247q0 56 38 95.5t93 39.5q56 0 95.5 -40t39.5 -95t-39.5 -94t-95.5 -39q-55 0 -93 38.5t-38 94.5z" />
<glyph unicode="&#xec;" horiz-adv-x="542" d="M-96 1409h295l200 -319h-227zM147 0v981h250v-981h-250z" />
<glyph unicode="&#xed;" horiz-adv-x="542" d="M145 1090l201 319h295l-268 -319h-228zM147 0v981h250v-981h-250z" />
<glyph unicode="&#xee;" horiz-adv-x="542" d="M-84 1090l244 319h227l242 -319h-238l-119 174l-118 -174h-238zM147 0v981h250v-981h-250z" />
<glyph unicode="&#xef;" horiz-adv-x="542" d="M-47 1247q0 56 38 95.5t93 39.5q56 0 95.5 -40t39.5 -95t-39.5 -94t-95.5 -39q-55 0 -93 38.5t-38 94.5zM147 0v981h250v-981h-250zM326 1247q0 56 38 95.5t93 39.5t95 -40t40 -95t-39.5 -94t-95.5 -39q-55 0 -93 38.5t-38 94.5z" />
<glyph unicode="&#xf0;" d="M82 477q0 210 147 347t363 137q85 0 180 -62q-57 106 -166 219l-153 -88l-80 133l108 62q-81 63 -143 90l170 155q106 -51 192 -120l136 75l77 -133l-92 -53q133 -141 208 -319t75 -369q0 -263 -141 -421.5t-371 -158.5q-140 0 -257.5 67t-185 183.5t-67.5 255.5z M332 477q0 -116 74 -193t188 -77q112 0 185 77t73 193q0 117 -73 194t-185 77q-114 0 -188 -77t-74 -194z" />
<glyph unicode="&#xf1;" d="M147 0v981h250v-96q95 125 277 125q171 0 272 -112.5t101 -303.5v-594h-250v557q0 100 -54 158.5t-145 58.5q-93 0 -147 -58.5t-54 -158.5v-557h-250zM227 1200q74 180 211 180q50 0 100.5 -23.5t96.5 -47t86 -23.5q72 0 125 100l123 -102q-74 -178 -211 -178 q-50 0 -101 23.5t-97.5 47t-86.5 23.5q-64 0 -123 -100z" />
<glyph unicode="&#xf2;" d="M82 489q0 141 67.5 261t185 190t257.5 70t258 -70t186 -190t68 -261q0 -140 -68 -259.5t-186 -189t-258 -69.5t-257.5 69.5t-185 188.5t-67.5 260zM223 1409h295l201 -319h-227zM332 492q0 -120 74.5 -202.5t187.5 -82.5q111 0 184.5 82.5t73.5 202.5t-73 201t-185 81 q-113 0 -187.5 -81.5t-74.5 -200.5z" />
<glyph unicode="&#xf3;" d="M82 489q0 141 67.5 261t185 190t257.5 70t258 -70t186 -190t68 -261q0 -140 -68 -259.5t-186 -189t-258 -69.5t-257.5 69.5t-185 188.5t-67.5 260zM332 492q0 -120 74.5 -202.5t187.5 -82.5q111 0 184.5 82.5t73.5 202.5t-73 201t-185 81q-113 0 -187.5 -81.5 t-74.5 -200.5zM465 1090l201 319h295l-269 -319h-227z" />
<glyph unicode="&#xf4;" d="M82 489q0 141 67.5 261t185 190t257.5 70t258 -70t186 -190t68 -261q0 -140 -68 -259.5t-186 -189t-258 -69.5t-257.5 69.5t-185 188.5t-67.5 260zM236 1090l243 319h228l241 -319h-237l-119 174l-119 -174h-237zM332 492q0 -120 74.5 -202.5t187.5 -82.5 q111 0 184.5 82.5t73.5 202.5t-73 201t-185 81q-113 0 -187.5 -81.5t-74.5 -200.5z" />
<glyph unicode="&#xf5;" d="M82 489q0 141 67.5 261t185 190t257.5 70t258 -70t186 -190t68 -261q0 -140 -68 -259.5t-186 -189t-258 -69.5t-257.5 69.5t-185 188.5t-67.5 260zM221 1200q74 180 211 180q50 0 100.5 -23.5t96.5 -47t86 -23.5q72 0 125 100l123 -102q-74 -178 -211 -178 q-50 0 -101 23.5t-97.5 47t-86.5 23.5q-64 0 -123 -100zM332 492q0 -120 74.5 -202.5t187.5 -82.5q111 0 184.5 82.5t73.5 202.5t-73 201t-185 81q-113 0 -187.5 -81.5t-74.5 -200.5z" />
<glyph unicode="&#xf6;" d="M82 489q0 141 67.5 261t185 190t257.5 70t258 -70t186 -190t68 -261q0 -140 -68 -259.5t-186 -189t-258 -69.5t-257.5 69.5t-185 188.5t-67.5 260zM272 1247q0 56 38 95.5t93 39.5q56 0 96 -40t40 -95t-40 -94t-96 -39q-55 0 -93 38.5t-38 94.5zM332 492 q0 -120 74.5 -202.5t187.5 -82.5q111 0 184.5 82.5t73.5 202.5t-73 201t-185 81q-113 0 -187.5 -81.5t-74.5 -200.5zM645 1247q0 56 38 95.5t93 39.5q56 0 95.5 -40t39.5 -95t-39.5 -94t-95.5 -39q-55 0 -93 38.5t-38 94.5z" />
<glyph unicode="&#xf7;" horiz-adv-x="1067" d="M92 545v227h883v-227h-883zM369 256q0 67 47.5 115.5t113.5 48.5q68 0 116 -48t48 -116q0 -67 -48 -114.5t-116 -47.5q-66 0 -113.5 47.5t-47.5 114.5zM369 1055q0 67 47.5 115.5t113.5 48.5q68 0 116 -48.5t48 -115.5q0 -66 -48.5 -114t-115.5 -48q-66 0 -113.5 48 t-47.5 114z" />
<glyph unicode="&#xf8;" horiz-adv-x="1212" d="M82 489q0 141 69.5 261t190.5 190t264 70q120 0 230 -52l82 119l122 -84l-79 -119q81 -72 126.5 -171.5t45.5 -213.5q0 -140 -70 -259.5t-191.5 -189t-265.5 -69.5q-121 0 -229 54l-76 -111l-123 84l74 108q-80 74 -125 172.5t-45 210.5zM332 492q0 -104 61 -181l307 449 q-51 14 -92 14q-119 0 -197.5 -81.5t-78.5 -200.5zM512 223q50 -16 96 -16q117 0 195 82.5t78 202.5q0 101 -60 180z" />
<glyph unicode="&#xf9;" d="M133 432v549h250v-530q0 -107 57.5 -173.5t151.5 -66.5t151.5 66.5t57.5 173.5v530h250v-549q0 -206 -126 -331.5t-333 -125.5t-333 125.5t-126 331.5zM223 1409h295l201 -319h-227z" />
<glyph unicode="&#xfa;" d="M133 432v549h250v-530q0 -107 57.5 -173.5t151.5 -66.5t151.5 66.5t57.5 173.5v530h250v-549q0 -206 -126 -331.5t-333 -125.5t-333 125.5t-126 331.5zM465 1090l201 319h295l-269 -319h-227z" />
<glyph unicode="&#xfb;" d="M133 432v549h250v-530q0 -107 57.5 -173.5t151.5 -66.5t151.5 66.5t57.5 173.5v530h250v-549q0 -206 -126 -331.5t-333 -125.5t-333 125.5t-126 331.5zM236 1090l243 319h228l241 -319h-237l-119 174l-119 -174h-237z" />
<glyph unicode="&#xfc;" d="M133 432v549h250v-530q0 -107 57.5 -173.5t151.5 -66.5t151.5 66.5t57.5 173.5v530h250v-549q0 -206 -126 -331.5t-333 -125.5t-333 125.5t-126 331.5zM272 1247q0 56 38 95.5t93 39.5q56 0 96 -40t40 -95t-40 -94t-96 -39q-55 0 -93 38.5t-38 94.5zM645 1247 q0 56 38 95.5t93 39.5q56 0 95.5 -40t39.5 -95t-39.5 -94t-95.5 -39q-55 0 -93 38.5t-38 94.5z" />
<glyph unicode="&#xfd;" horiz-adv-x="1099" d="M18 981h277l285 -676l235 676h252l-401 -1106q-108 -305 -365 -305q-75 0 -147 29t-121 75l112 197q69 -66 158 -66q53 0 89.5 35.5t66.5 120.5l8 25zM424 1090l201 319h295l-269 -319h-227z" />
<glyph unicode="&#xfe;" horiz-adv-x="1249" d="M147 -401v1810h250v-535q117 136 299 136q198 0 334.5 -146.5t136.5 -371.5q0 -223 -134 -372t-337 -149q-188 0 -299 127v-499h-250zM397 489q0 -119 74 -200.5t186 -81.5q113 0 187 81t74 201t-74 202.5t-187 82.5q-111 0 -185.5 -82.5t-74.5 -202.5z" />
<glyph unicode="&#xff;" horiz-adv-x="1099" d="M18 981h277l285 -676l235 676h252l-401 -1106q-108 -305 -365 -305q-75 0 -147 29t-121 75l112 197q69 -66 158 -66q53 0 89.5 35.5t66.5 120.5l8 25zM231 1247q0 56 38 95.5t93 39.5q56 0 96 -40t40 -95t-40 -94t-96 -39q-55 0 -93 38.5t-38 94.5zM604 1247 q0 56 38 95.5t93 39.5t95 -40t40 -95t-39.5 -94t-95.5 -39q-55 0 -93 38.5t-38 94.5z" />
<glyph unicode="&#x152;" horiz-adv-x="2103" d="M90 655q0 186 90.5 344t247 250t340.5 92q232 0 408 -155v127h849v-240h-593v-291h512v-241h-512v-299h593v-242h-849v127q-174 -156 -408 -156q-138 0 -263.5 54.5t-216.5 146t-144.5 218t-53.5 265.5zM362 655q0 -177 119.5 -302.5t286.5 -125.5q169 0 288.5 125 t119.5 303t-119.5 304t-288.5 126q-168 0 -287 -126t-119 -304z" />
<glyph unicode="&#x153;" horiz-adv-x="1904" d="M82 489q0 141 67.5 261t185 190t257.5 70q115 0 214 -48.5t169 -134.5q66 86 160 134.5t204 48.5q211 0 353.5 -144t142.5 -356q0 -58 -6 -82h-727q19 -104 91.5 -169.5t176.5 -65.5q153 0 252 102l129 -170q-59 -67 -165.5 -110.5t-221.5 -43.5q-116 0 -216 49t-171 136 q-69 -87 -169 -136t-216 -49q-140 0 -257.5 69.5t-185 188.5t-67.5 260zM332 492q0 -120 74.5 -202.5t187.5 -82.5q111 0 184.5 82.5t73.5 202.5t-73 201t-185 81q-113 0 -187.5 -81.5t-74.5 -200.5zM1106 586h473q-21 101 -84 156t-152 55q-90 0 -152.5 -57.5t-84.5 -153.5 z" />
<glyph unicode="&#x178;" horiz-adv-x="1275" d="M27 1313h284l332 -606l336 606h270l-483 -877v-436h-256v436zM319 1579q0 56 38.5 95.5t93.5 39.5t95 -40t40 -95t-39.5 -94t-95.5 -39q-55 0 -93.5 38.5t-38.5 94.5zM692 1579q0 56 38 95.5t93 39.5t95 -40t40 -95t-39.5 -94t-95.5 -39q-55 0 -93 38.5t-38 94.5z" />
<glyph unicode="&#x2c6;" horiz-adv-x="819" d="M53 1090l244 319h227l242 -319h-238l-118 174l-119 -174h-238z" />
<glyph unicode="&#x2dc;" horiz-adv-x="819" d="M39 1200q74 180 211 180q50 0 100 -23.5t96 -47t86 -23.5q72 0 125 100l123 -102q-74 -178 -211 -178q-50 0 -100.5 23.5t-97 47t-86.5 23.5q-64 0 -123 -100z" />
<glyph unicode="&#x2000;" horiz-adv-x="938" />
<glyph unicode="&#x2001;" horiz-adv-x="1876" />
<glyph unicode="&#x2002;" horiz-adv-x="938" />
<glyph unicode="&#x2003;" horiz-adv-x="1876" />
<glyph unicode="&#x2004;" horiz-adv-x="625" />
<glyph unicode="&#x2005;" horiz-adv-x="469" />
<glyph unicode="&#x2006;" horiz-adv-x="312" />
<glyph unicode="&#x2007;" horiz-adv-x="312" />
<glyph unicode="&#x2008;" horiz-adv-x="234" />
<glyph unicode="&#x2009;" horiz-adv-x="375" />
<glyph unicode="&#x200a;" horiz-adv-x="104" />
<glyph unicode="&#x2010;" horiz-adv-x="667" d="M82 397v213h504v-213h-504z" />
<glyph unicode="&#x2011;" horiz-adv-x="667" d="M82 397v213h504v-213h-504z" />
<glyph unicode="&#x2012;" horiz-adv-x="667" d="M82 397v213h504v-213h-504z" />
<glyph unicode="&#x2013;" horiz-adv-x="1024" d="M82 397v213h860v-213h-860z" />
<glyph unicode="&#x2014;" horiz-adv-x="2048" d="M82 397v213h1884v-213h-1884z" />
<glyph unicode="&#x2018;" horiz-adv-x="452" d="M63 961l115 448h182l-55 -448h-242z" />
<glyph unicode="&#x2019;" horiz-adv-x="452" d="M92 961l55 448h242l-115 -448h-182z" />
<glyph unicode="&#x201a;" horiz-adv-x="452" d="M92 -244l55 449h242l-115 -449h-182z" />
<glyph unicode="&#x201c;" horiz-adv-x="813" d="M63 961l115 448h182l-55 -448h-242zM424 961l115 448h182l-55 -448h-242z" />
<glyph unicode="&#x201d;" horiz-adv-x="813" d="M92 961l55 448h242l-115 -448h-182zM453 961l55 448h242l-115 -448h-182z" />
<glyph unicode="&#x201e;" horiz-adv-x="813" d="M92 -244l55 449h242l-115 -449h-182zM453 -244l55 449h242l-115 -449h-182z" />
<glyph unicode="&#x2022;" horiz-adv-x="854" d="M135 512q0 122 85 207.5t208 85.5q121 0 206 -85.5t85 -207.5t-85 -207.5t-206 -85.5q-123 0 -208 85.5t-85 207.5z" />
<glyph unicode="&#x2026;" horiz-adv-x="1517" d="M72 137q0 68 47 116t114 48t115.5 -48.5t48.5 -115.5t-48 -114.5t-116 -47.5q-67 0 -114 47t-47 115zM596 137q0 67 48 115.5t114 48.5q68 0 116 -48.5t48 -115.5t-48 -114.5t-116 -47.5q-66 0 -114 47.5t-48 114.5zM1122 137q0 68 47.5 116t114.5 48q66 0 114 -48.5 t48 -115.5t-48 -114.5t-114 -47.5q-68 0 -115 47.5t-47 114.5z" />
<glyph unicode="&#x202f;" horiz-adv-x="375" />
<glyph unicode="&#x2039;" horiz-adv-x="663" d="M94 508l322 403l153 -127l-227 -276l227 -277l-153 -127z" />
<glyph unicode="&#x203a;" horiz-adv-x="663" d="M94 231l228 277l-228 276l154 127l321 -403l-321 -404z" />
<glyph unicode="&#x205f;" horiz-adv-x="469" />
<glyph unicode="&#x20ac;" horiz-adv-x="1345" d="M27 416l49 168h82q-4 46 -4 71q0 44 2 64h-129l49 168h117q70 201 241 327.5t385 126.5q299 0 479 -180l-153 -178q-130 117 -322 117q-112 0 -204.5 -57t-147.5 -156h479l-49 -168h-485q-4 -40 -4 -64q0 -25 4 -71h458l-49 -168h-352q54 -94 145.5 -148.5t208.5 -54.5 q203 0 316 119l155 -174q-172 -187 -477 -187q-217 0 -386.5 123t-239.5 322h-168z" />
<glyph unicode="&#x2122;" horiz-adv-x="1783" d="M59 1153v160h603v-160h-218v-557h-180v557h-205zM768 596v717h178l258 -332l256 332h168v-717h-178l8 477l-260 -330l-260 330l6 -477h-176z" />
<glyph unicode="&#x25fc;" horiz-adv-x="983" d="M0 0v983h983v-983h-983z" />
</font>
</defs>
</svg>
