<?xml version="1.0" standalone="no"?>
<!DOCTYPE svg PUBLIC "-//W3C//DTD SVG 1.1//EN" "http://www.w3.org/Graphics/SVG/1.1/DTD/svg11.dtd" >
<svg xmlns="http://www.w3.org/2000/svg" xmlns:xlink="http://www.w3.org/1999/xlink" version="1.1">
<metadata></metadata>
<defs>
<font id="volteregular" horiz-adv-x="1308" >
<font-face units-per-em="2048" ascent="1536" descent="-512" />
<missing-glyph horiz-adv-x="491" />
<glyph unicode="&#xfb01;" horiz-adv-x="1171" d="M88 872v109h150v78q0 181 103.5 277t281.5 96q111 0 203.5 -34t152.5 -93l-70 -95q-112 109 -282 109q-133 0 -201 -68t-68 -198v-72h611v-981h-121v872h-490v-872h-120v872h-150z" />
<glyph unicode="&#xfb02;" horiz-adv-x="1171" d="M88 872v109h150v63q0 188 102 288t270 100q146 0 260 -52h99v-1380h-121v1264q-92 55 -232 55q-124 0 -191 -73t-67 -206v-59h252v-109h-252v-872h-120v872h-150z" />
<glyph horiz-adv-x="0" />
<glyph horiz-adv-x="682" />
<glyph unicode=" "  horiz-adv-x="491" />
<glyph unicode="&#x09;" horiz-adv-x="491" />
<glyph unicode="&#xa0;" horiz-adv-x="491" />
<glyph unicode="!" horiz-adv-x="589" d="M199 80q0 40 28 68t66 28q40 0 69 -28t29 -68q0 -38 -29 -66t-69 -28q-38 0 -66 28t-28 66zM229 1313h136l-17 -932h-102z" />
<glyph unicode="&#x22;" horiz-adv-x="610" d="M115 1409h125l-23 -397h-82zM371 1409h125l-23 -397h-82z" />
<glyph unicode="#" horiz-adv-x="1210" d="M35 393l18 96h234l67 340h-233l18 95h236l78 387h106l-78 -387h361l78 387h106l-78 -387h226l-17 -95h-229l-68 -340h230l-19 -96h-231l-80 -393h-107l80 393h-360l-80 -393h-107l80 393h-231zM393 489h361l67 340h-360z" />
<glyph unicode="$" horiz-adv-x="1155" d="M104 213l89 82q71 -88 171.5 -135t221.5 -47q156 0 245 66.5t89 178.5q0 72 -42.5 123.5t-110.5 81.5t-150 55t-164 52.5t-150 63t-110.5 98t-42.5 147.5q0 141 106.5 232.5t284.5 101.5v166h110v-166q121 -12 219.5 -64t147.5 -123l-88 -84q-48 67 -142 112.5t-202 45.5 q-140 0 -225 -59.5t-85 -157.5q0 -64 42.5 -110t111 -74t150.5 -51.5t164.5 -52t151 -66.5t111 -103.5t42.5 -154.5q0 -155 -106.5 -254.5t-291.5 -116.5v-166h-110v166q-147 7 -258 64t-179 149z" />
<glyph unicode="%" horiz-adv-x="1396" d="M57 985q0 147 70.5 244.5t177.5 97.5q108 0 179 -97.5t71 -244.5q0 -148 -70.5 -244t-177.5 -96q-109 0 -179.5 96t-70.5 244zM152 985q0 -113 42 -184.5t111 -71.5q70 0 114 71.5t44 184.5t-44 183.5t-114 70.5q-68 0 -110.5 -71t-42.5 -183zM188 0l914 1313h108 l-911 -1313h-111zM840 328q0 147 70 244.5t177 97.5q108 0 179 -97.5t71 -244.5q0 -148 -70 -244t-177 -96q-109 0 -179.5 96t-70.5 244zM934 328q0 -113 42 -184.5t111 -71.5q70 0 114 71.5t44 184.5t-44 183.5t-114 70.5q-68 0 -110.5 -71t-42.5 -183z" />
<glyph unicode="&#x26;" horiz-adv-x="1302" d="M133 383q0 114 58.5 210t164.5 167q-100 114 -100 252t101 231.5t253 93.5q111 0 195 -49t119 -119l-84 -82q-29 62 -89 99t-147 37q-97 0 -162 -60t-65 -151q0 -116 110 -221l465 -443l164 205l88 -68l-172 -215l217 -204l-73 -89l-215 205q-100 -111 -201.5 -158 t-233.5 -47q-168 0 -280.5 115t-112.5 291zM254 389q0 -129 80.5 -214t202.5 -85q103 0 180 37.5t162 132.5l-447 424q-85 -54 -131.5 -129t-46.5 -166z" />
<glyph unicode="'" horiz-adv-x="354" d="M115 1409h125l-23 -397h-82z" />
<glyph unicode="(" horiz-adv-x="661" d="M139 569q0 252 110 474t302 391l74 -70q-172 -157 -268.5 -365.5t-96.5 -429.5q0 -222 96.5 -430.5t268.5 -365.5l-74 -70q-192 170 -302 391t-110 475z" />
<glyph unicode=")" horiz-adv-x="661" d="M37 -227q172 157 268 365t96 431q0 221 -96.5 430t-267.5 365l74 70q192 -169 301.5 -390.5t109.5 -474.5q0 -254 -109.5 -475.5t-301.5 -390.5z" />
<glyph unicode="*" horiz-adv-x="813" d="M115 1157l32 105l218 -86l-13 233h109l-12 -233l217 86l32 -105l-223 -59l146 -180l-89 -64l-124 195l-127 -195l-88 64l145 180z" />
<glyph unicode="+" horiz-adv-x="1067" d="M143 604v113h332v358h117v-358h334v-113h-334v-358h-117v358h-332z" />
<glyph unicode="," horiz-adv-x="333" d="M-6 -248l104 412h150l-154 -412h-100z" />
<glyph unicode="-" horiz-adv-x="636" d="M82 438v107h473v-107h-473z" />
<glyph unicode="." horiz-adv-x="333" d="M72 80q0 40 28 68t66 28q40 0 68 -28t28 -68q0 -38 -28 -66t-68 -28q-38 0 -66 28t-28 66z" />
<glyph unicode="/" horiz-adv-x="827" d="M53 0l596 1313h125l-596 -1313h-125z" />
<glyph unicode="0" horiz-adv-x="1234" d="M143 657q0 193 60.5 348t168.5 242.5t242 87.5q136 0 245.5 -87.5t171 -242.5t61.5 -348q0 -194 -61 -349.5t-169.5 -243t-243.5 -87.5t-244 87.5t-170 243t-61 349.5zM264 657q0 -163 45 -292.5t125.5 -202t181.5 -72.5q154 0 253.5 160t99.5 407q0 248 -100 407 t-255 159q-152 0 -251 -159.5t-99 -406.5z" />
<glyph unicode="1" horiz-adv-x="841" d="M106 989l334 324h121v-1313h-121v1161l-260 -254z" />
<glyph unicode="2" horiz-adv-x="1024" d="M61 0v98l531 512q94 91 137 170t43 170q0 110 -81.5 191.5t-209.5 81.5q-213 0 -323 -209l-95 63q137 258 422 258q179 0 293.5 -112.5t114.5 -270.5q0 -113 -48 -207t-167 -206l-451 -430h684v-109h-850z" />
<glyph unicode="3" horiz-adv-x="1046" d="M51 182l88 82q71 -92 152 -133t186 -41q156 0 240 84.5t84 212.5q0 65 -20 116.5t-63 92.5t-118.5 63.5t-179.5 22.5h-88v80l413 442h-634v109h782v-101l-410 -434q119 -7 206 -40.5t137 -87t73 -119t23 -144.5q0 -83 -28.5 -156.5t-83 -130.5t-141.5 -90t-196 -33 q-140 0 -242.5 50.5t-179.5 154.5z" />
<glyph unicode="4" horiz-adv-x="1130" d="M74 303v109l661 901h105v-901h209v-109h-209v-303h-119v303h-647zM195 412h526v723z" />
<glyph unicode="5" horiz-adv-x="1134" d="M123 180l88 82q71 -91 151 -131.5t181 -40.5q155 0 241 87t86 218q0 63 -19.5 119t-57.5 101t-101.5 71.5t-144.5 26.5q-100 0 -167 -21t-140 -69l-58 39l111 651h631v-109h-535l-76 -444q93 57 248 57q106 0 189.5 -34t135 -93t78.5 -134.5t27 -162.5q0 -85 -29 -159.5 t-83.5 -132.5t-140.5 -92t-193 -34q-140 0 -242.5 50.5t-179.5 154.5z" />
<glyph unicode="6" horiz-adv-x="1181" d="M143 426q0 105 38 195t136 225l340 467h142l-342 -475q60 26 139 26q200 0 326.5 -127t126.5 -311q0 -192 -129.5 -320.5t-321.5 -128.5q-191 0 -323 130t-132 319zM264 426q0 -145 94.5 -240.5t239.5 -95.5q141 0 235.5 96t94.5 240t-94 238t-236 94 q-145 0 -239.5 -93.5t-94.5 -238.5z" />
<glyph unicode="7" horiz-adv-x="933" d="M41 1204v109h821v-99l-545 -1214h-129l543 1204h-690z" />
<glyph unicode="8" horiz-adv-x="1120" d="M125 371q0 122 71 215t191 135q-94 39 -148.5 114.5t-54.5 170.5q0 142 106.5 235.5t268.5 93.5q163 0 270 -93.5t107 -235.5q0 -96 -54 -171t-147 -114q120 -42 190 -135t70 -215q0 -169 -124 -281.5t-312 -112.5q-187 0 -310.5 112.5t-123.5 281.5zM246 377 q0 -126 90 -209.5t225 -83.5q136 0 224.5 83.5t88.5 209.5q0 125 -88.5 206t-224.5 81q-135 0 -225 -81.5t-90 -205.5zM303 997q0 -98 74 -163.5t184 -65.5t183 65.5t73 163.5q0 100 -73 166t-183 66t-184 -66t-74 -166z" />
<glyph unicode="9" horiz-adv-x="1181" d="M133 881q0 191 129.5 319.5t321.5 128.5q191 0 322.5 -129.5t131.5 -318.5q0 -105 -38 -195t-136 -227l-340 -465h-141l340 473q-66 -25 -139 -25q-200 0 -325.5 127.5t-125.5 311.5zM254 881q0 -144 94.5 -239t235.5 -95q143 0 237 94.5t94 239.5q0 144 -94 238.5 t-237 94.5q-142 0 -236 -94.5t-94 -238.5z" />
<glyph unicode=":" horiz-adv-x="333" d="M72 80q0 40 28 68t66 28q40 0 68 -28t28 -68q0 -38 -28 -66t-68 -28q-38 0 -66 28t-28 66zM72 844q0 40 28 68t66 28q40 0 68 -28t28 -68q0 -38 -28 -66t-68 -28q-38 0 -66 28t-28 66z" />
<glyph unicode=";" horiz-adv-x="333" d="M-6 -248l104 412h150l-154 -412h-100zM72 844q0 40 28 68t66 28q40 0 68 -28t28 -68q0 -38 -28 -66t-68 -28q-38 0 -66 28t-28 66z" />
<glyph unicode="&#x3c;" horiz-adv-x="1067" d="M143 614v97l783 399v-121l-643 -325l643 -328v-123z" />
<glyph unicode="=" horiz-adv-x="1067" d="M143 444v111h783v-111h-783zM143 766v111h783v-111h-783z" />
<glyph unicode="&#x3e;" horiz-adv-x="1067" d="M143 213v123l643 328l-643 325v121l783 -399v-97z" />
<glyph unicode="?" horiz-adv-x="1013" d="M70 1100q61 104 166 169.5t239 65.5q95 0 173 -31t127 -83.5t75.5 -119t26.5 -138.5q0 -119 -57.5 -213t-196.5 -191l-164 -115l-58 91l164 116q100 70 145.5 140t45.5 165q0 118 -81 192.5t-206 74.5q-180 0 -315 -191zM371 80q0 40 28 68t66 28q40 0 68 -28t28 -68 q0 -38 -28 -66t-68 -28q-38 0 -66 28t-28 66z" />
<glyph unicode="@" horiz-adv-x="1775" d="M125 569q0 209 104 387t281.5 281.5t386.5 103.5q156 0 297 -57.5t240.5 -153t158 -225.5t58.5 -270q0 -125 -38 -228t-115 -167t-181 -64q-79 0 -137 43t-78 135q-41 -85 -113.5 -132.5t-171.5 -47.5q-123 0 -206 97.5t-83 256.5q0 178 104 300t255 122q160 0 223 -141 l6 119h103l-25 -428q-11 -228 131 -228q105 0 164 102t59 259q0 122 -49.5 234.5t-135 195.5t-207.5 132.5t-259 49.5t-261 -53.5t-213.5 -144t-142.5 -216t-53 -262.5q0 -136 53 -260.5t142.5 -215.5t214 -145t260.5 -54q110 0 184 19t144 62l43 -84q-147 -94 -371 -94 q-209 0 -386.5 103.5t-281.5 281.5t-104 387zM631 539q0 -115 58 -192t142 -77q121 0 193 94t72 228q0 112 -54.5 187t-144.5 75q-112 0 -189 -91.5t-77 -223.5z" />
<glyph unicode="A" horiz-adv-x="1353" d="M53 0l553 1313h144l550 -1313h-137l-155 373h-672l-156 -373h-127zM381 483h582l-291 699z" />
<glyph unicode="B" horiz-adv-x="1273" d="M211 0v1311h514q162 0 273.5 -99t111.5 -243q0 -74 -33.5 -136t-77 -96.5t-92.5 -54.5q108 -32 181 -115.5t73 -208.5q0 -149 -114.5 -253.5t-286.5 -104.5h-549zM334 111h409q122 0 206.5 74.5t84.5 181.5q0 106 -84 180t-207 74h-409v-510zM334 727h379q114 0 192 68.5 t78 167.5t-78.5 168t-193.5 69h-377v-473z" />
<glyph unicode="C" horiz-adv-x="1325" d="M135 653q0 139 52.5 265.5t141.5 217.5t212 145t258 54q145 0 254 -37t200 -114l-79 -97q-167 130 -375 130q-146 0 -269.5 -75.5t-195.5 -205.5t-72 -283q0 -152 72.5 -279.5t199.5 -202.5t281 -75q218 0 363 123l77 -88q-92 -81 -201 -117.5t-249 -36.5 q-139 0 -263.5 53.5t-213.5 144t-141 215.5t-52 263z" />
<glyph unicode="D" horiz-adv-x="1454" d="M211 0v1311h371q331 0 535 -181.5t204 -474.5q0 -193 -89.5 -342.5t-251 -231t-370.5 -81.5h-399zM336 115h256q272 0 436 148t164 392q0 245 -164.5 393t-437.5 148h-254v-1081z" />
<glyph unicode="E" horiz-adv-x="1130" d="M211 0v1313h819v-115h-696v-483h614v-115h-614v-485h696v-115h-819z" />
<glyph unicode="F" horiz-adv-x="1101" d="M211 0v1311h797v-115h-674v-498h592v-114h-592v-584h-123z" />
<glyph unicode="G" horiz-adv-x="1417" d="M135 653q0 139 52.5 265.5t141.5 217.5t212 145t258 54q145 0 254 -37t200 -114l-79 -97q-167 130 -375 130q-146 0 -269.5 -75.5t-195.5 -205.5t-72 -283q0 -152 72.5 -279.5t199.5 -202.5t281 -75q176 0 320 72v473h122v-551q-177 -113 -452 -113q-139 0 -263.5 53.5 t-213.5 144t-141 215.5t-52 263z" />
<glyph unicode="H" horiz-adv-x="1492" d="M211 0v1313h123v-596h823v596h123v-1313h-123v602h-823v-602h-123z" />
<glyph unicode="I" horiz-adv-x="546" d="M211 0v1313h123v-1313h-123z" />
<glyph unicode="J" horiz-adv-x="894" d="M53 111l84 86q80 -101 207 -101q111 0 172.5 71t61.5 208v938h122v-944q0 -99 -28 -175.5t-77 -123t-112 -70t-137 -23.5q-91 0 -170.5 36.5t-122.5 97.5z" />
<glyph unicode="K" horiz-adv-x="1204" d="M211 0v1313h123v-611h170l479 611h143l-516 -660l541 -653h-156l-485 588h-176v-588h-123z" />
<glyph unicode="L" horiz-adv-x="1101" d="M211 0v1313h123v-1198h715v-115h-838z" />
<glyph unicode="M" horiz-adv-x="1730" d="M211 0v1313h141l522 -840l521 840h125v-1313h-123v1110l-531 -844l-532 844v-1110h-123z" />
<glyph unicode="N" horiz-adv-x="1492" d="M205 0v1313h133l827 -1123v1123h123v-1313h-135l-827 1120v-1120h-121z" />
<glyph unicode="O" horiz-adv-x="1599" d="M135 653q0 139 52.5 265.5t141.5 217.5t212 145t258 54q136 0 259 -54t212 -145.5t141.5 -217.5t52.5 -265q0 -137 -52.5 -262.5t-141.5 -216t-212 -144t-259 -53.5q-180 0 -333 90.5t-242 246t-89 339.5zM262 653q0 -113 42.5 -216t115 -178t171.5 -119t208 -44t209 44 t172 119t114.5 178t42.5 216q0 153 -72 283t-196 205.5t-270 75.5q-109 0 -208 -44.5t-171.5 -120.5t-115 -180.5t-42.5 -218.5z" />
<glyph unicode="P" horiz-adv-x="1259" d="M211 0v1313h455q216 0 347.5 -109.5t131.5 -290.5q0 -180 -133.5 -289.5t-354.5 -109.5h-323v-514h-123zM334 625h342q154 0 248 79.5t94 208.5q0 130 -94 209.5t-248 79.5h-342v-577z" />
<glyph unicode="Q" horiz-adv-x="1599" d="M135 653q0 139 52.5 265.5t141.5 217.5t212 145t258 54q136 0 259 -54t212 -145.5t141.5 -217.5t52.5 -265q0 -216 -122 -390t-316 -245l422 -208l-53 -103l-535 273q-30 -3 -61 -3q-180 0 -333 90.5t-242 246t-89 339.5zM262 653q0 -113 42.5 -216t115 -178t171.5 -119 t208 -44t209 44t172 119t114.5 178t42.5 216q0 153 -72 283t-196 205.5t-270 75.5q-109 0 -208 -44.5t-171.5 -120.5t-115 -180.5t-42.5 -218.5z" />
<glyph unicode="R" horiz-adv-x="1265" d="M211 0v1313h455q201 0 323.5 -103.5t122.5 -275.5q0 -144 -90 -242t-246 -127l354 -565h-141l-344 555h-311v-555h-123zM334 666h342q139 0 224 74t85 194q0 121 -84.5 194.5t-224.5 73.5h-342v-536z" />
<glyph unicode="S" horiz-adv-x="1155" d="M104 193l89 81q71 -88 171.5 -135t221.5 -47q156 0 245 67t89 179q0 76 -42.5 131t-110.5 87t-150 58.5t-164 55.5t-150 67t-110.5 104.5t-42.5 157.5q0 151 121 243.5t319 92.5q140 0 255.5 -53.5t172.5 -134.5l-88 -84q-48 67 -142 112.5t-202 45.5q-140 0 -225 -59.5 t-85 -157.5q0 -54 26.5 -96t71 -69.5t102.5 -50t122 -42.5t128.5 -41.5t122.5 -52t102.5 -69.5t71 -98.5t26.5 -134.5q0 -170 -125 -271.5t-338 -101.5q-162 0 -285.5 58.5t-196.5 157.5z" />
<glyph unicode="T" horiz-adv-x="1075" d="M37 1198v115h1001v-115h-440v-1198h-123v1198h-438z" />
<glyph unicode="U" horiz-adv-x="1376" d="M195 492v821h120v-824q0 -177 103 -285t270 -108t269 107t102 284v826h123v-821q0 -232 -136 -373.5t-360 -141.5q-222 0 -356.5 141.5t-134.5 373.5z" />
<glyph unicode="V" horiz-adv-x="1275" d="M55 1313h138l450 -1176l451 1176h127l-510 -1313h-144z" />
<glyph unicode="W" horiz-adv-x="2004" d="M74 1313h135l364 -1159l355 1159h153l359 -1157l362 1157h129l-426 -1313h-147l-357 1153l-358 -1153h-143z" />
<glyph unicode="X" horiz-adv-x="1189" d="M55 0l465 674l-442 639h151l373 -541l375 541h137l-442 -641l463 -672h-150l-395 573l-397 -573h-138z" />
<glyph unicode="Y" horiz-adv-x="1183" d="M37 1313h139l418 -735l420 735h133l-494 -864v-449h-123v449z" />
<glyph unicode="Z" horiz-adv-x="1153" d="M96 0v115l803 1083h-799v115h953v-115l-803 -1083h807v-115h-961z" />
<glyph unicode="[" horiz-adv-x="675" d="M217 -266v1675h385v-109h-264v-1458h264v-108h-385z" />
<glyph unicode="\" horiz-adv-x="827" d="M53 1313h125l596 -1313h-125z" />
<glyph unicode="]" horiz-adv-x="675" d="M74 -158h264v1458h-264v109h385v-1675h-385v108z" />
<glyph unicode="^" horiz-adv-x="1067" d="M166 657l321 656h103l313 -656h-112l-252 531l-260 -531h-113z" />
<glyph unicode="_" horiz-adv-x="866" d="M0 -41h866v-94h-866v94z" />
<glyph unicode="`" horiz-adv-x="819" d="M143 1409h152l201 -319h-113z" />
<glyph unicode="a" d="M125 492q0 142 61.5 259t171.5 185t246 68q124 0 222.5 -57.5t160.5 -158.5v193h121v-981h-121v197q-62 -102 -160.5 -161t-222.5 -59q-134 0 -244 67.5t-172.5 186t-62.5 261.5zM246 494q0 -168 106 -286t266 -118q159 0 264 118t105 286t-104.5 282.5t-264.5 114.5 q-161 0 -266.5 -114.5t-105.5 -282.5z" />
<glyph unicode="b" d="M201 0v1409h123v-621q62 100 161 158t220 58q134 0 244 -67.5t172.5 -186t62.5 -261.5q0 -142 -61.5 -259t-171.5 -185t-246 -68q-122 0 -221 56t-160 155v-188h-123zM324 487q0 -167 105 -282t265 -115q161 0 265 114.5t104 282.5q0 169 -104.5 286.5t-264.5 117.5 q-159 0 -264.5 -118t-105.5 -286z" />
<glyph unicode="c" horiz-adv-x="1030" d="M125 492q0 214 142.5 363t355.5 149q111 0 203 -34.5t153 -95.5l-72 -88q-115 105 -282 105q-165 0 -272 -114.5t-107 -282.5t107 -286t268 -118q181 0 286 105l66 -89q-60 -61 -153.5 -95t-201.5 -34q-210 0 -351.5 149.5t-141.5 365.5z" />
<glyph unicode="d" d="M125 492q0 142 61.5 259t171.5 185t246 68q124 0 222.5 -57.5t160.5 -158.5v621h121v-1409h-121v197q-62 -102 -160.5 -161t-222.5 -59q-134 0 -244 67.5t-172.5 186t-62.5 261.5zM246 494q0 -168 106 -286t266 -118q159 0 264 118t105 286t-104.5 282.5t-264.5 114.5 q-161 0 -266.5 -114.5t-105.5 -282.5z" />
<glyph unicode="e" horiz-adv-x="1173" d="M125 492q0 140 61 257.5t171 186t245 68.5q132 0 240.5 -67t169.5 -180t61 -247q0 -27 -4 -51h-821q11 -160 118 -266.5t267 -106.5q88 0 168 31t135 86l65 -84q-63 -66 -161.5 -104t-210.5 -38q-144 0 -260 69t-180 186.5t-64 259.5zM248 547h700q-20 163 -113.5 256.5 t-232.5 93.5q-142 0 -239 -99t-115 -251z" />
<glyph unicode="f" horiz-adv-x="675" d="M88 872v109h150v160q0 141 72.5 216t195.5 75q140 0 219 -89l-68 -86q-58 62 -143 62q-76 0 -116 -46.5t-40 -133.5v-158h265v-109h-265v-872h-120v872h-150z" />
<glyph unicode="g" horiz-adv-x="1304" d="M125 498q0 213 136.5 358t338.5 145q125 0 223.5 -56t159.5 -157v193h121v-911q0 -247 -130.5 -370.5t-357.5 -123.5q-258 0 -411 121l63 96q146 -104 344 -104q179 0 275 95t96 277v148q-62 -101 -161 -160t-222 -59q-202 0 -338.5 146t-136.5 362zM246 500 q0 -166 105.5 -282t264.5 -116q158 0 262.5 116.5t104.5 281.5q0 164 -104.5 277.5t-262.5 113.5q-160 0 -265 -113t-105 -278z" />
<glyph unicode="h" horiz-adv-x="1200" d="M201 0v1409h123v-571q47 78 127.5 122t183.5 44q177 0 282 -108t105 -290v-606h-121v584q0 143 -77 225t-212 82t-211.5 -82t-76.5 -225v-584h-123z" />
<glyph unicode="i" horiz-adv-x="524" d="M180 1268q0 34 24 59t58 25t58 -25t24 -59t-24 -58t-58 -24t-58 24t-24 58zM201 0v981h123v-981h-123z" />
<glyph unicode="j" horiz-adv-x="524" d="M-117 -362l60 90q48 -39 120 -39q67 0 102.5 44t35.5 130v1118h123v-1110q0 -142 -66 -218.5t-190 -76.5q-110 0 -185 62zM180 1268q0 34 24 59t58 25t58 -25t24 -59t-24 -58t-58 -24t-58 24t-24 58z" />
<glyph unicode="k" horiz-adv-x="1060" d="M201 0v1409h123v-838h184l328 410h143l-365 -459l381 -522h-149l-334 459h-188v-459h-123z" />
<glyph unicode="l" horiz-adv-x="524" d="M201 0v1409h123v-1409h-123z" />
<glyph unicode="m" horiz-adv-x="1835" d="M201 0v981h123v-143q45 78 121 122t173 44q120 0 208 -57t130 -159q41 99 126.5 157.5t201.5 58.5q169 0 271 -108.5t102 -289.5v-606h-121v584q0 143 -72.5 225t-199.5 82q-129 0 -202 -82t-73 -225v-584h-121v584q0 143 -72.5 225t-199.5 82t-199.5 -82t-72.5 -225 v-584h-123z" />
<glyph unicode="n" horiz-adv-x="1200" d="M201 0v981h123v-143q47 78 127.5 122t183.5 44q177 0 282 -108t105 -290v-606h-121v584q0 143 -77 225t-212 82t-211.5 -82t-76.5 -225v-584h-123z" />
<glyph unicode="o" horiz-adv-x="1232" d="M125 492q0 140 63.5 257.5t176.5 186t251 68.5t251 -68.5t177 -186t64 -257.5q0 -215 -141.5 -365t-350.5 -150t-350 150t-141 365zM246 494q0 -168 106 -286t266 -118q159 0 264 118t105 286t-104.5 282.5t-264.5 114.5q-161 0 -266.5 -114.5t-105.5 -282.5z" />
<glyph unicode="p" d="M201 -401v1382h123v-193q62 100 161 158t220 58q134 0 244 -67.5t172.5 -186t62.5 -261.5q0 -142 -61.5 -259t-171.5 -185t-246 -68q-122 0 -221 56t-160 155v-589h-123zM324 487q0 -167 105 -282t265 -115q161 0 265 114.5t104 282.5q0 169 -104.5 286.5t-264.5 117.5 q-159 0 -264.5 -118t-105.5 -286z" />
<glyph unicode="q" d="M125 492q0 142 61.5 259t171.5 185t246 68q124 0 222.5 -57.5t160.5 -158.5v193h121v-1382h-121v598q-62 -102 -160.5 -161t-222.5 -59q-134 0 -244 67.5t-172.5 186t-62.5 261.5zM246 494q0 -168 106 -286t266 -118q159 0 264 118t105 286t-104.5 282.5t-264.5 114.5 q-161 0 -266.5 -114.5t-105.5 -282.5z" />
<glyph unicode="r" horiz-adv-x="765" d="M201 0v981h123v-135q39 74 103 116t146 42q95 0 146 -39l-51 -113q-53 37 -125 37q-102 0 -160.5 -82.5t-58.5 -226.5v-580h-123z" />
<glyph unicode="s" horiz-adv-x="929" d="M90 135l80 80q46 -62 126 -98.5t181 -36.5q108 0 170 48.5t62 127.5q0 53 -32 91.5t-83 61.5t-113 42t-124 41.5t-113 52t-83 80.5t-32 120q0 110 90 184.5t246 74.5q119 0 207.5 -38t134.5 -106l-80 -74q-49 62 -110 88.5t-150 26.5q-100 0 -159.5 -43t-59.5 -110 q0 -50 32 -85.5t83.5 -57t113 -40t123.5 -41.5t113.5 -53.5t83.5 -84t32 -126.5q0 -126 -97 -204.5t-263 -78.5q-127 0 -223.5 42t-155.5 116z" />
<glyph unicode="t" horiz-adv-x="763" d="M84 872v109h154v233h120v-233h291v-109h-289v-608q0 -86 39.5 -130t114.5 -44q83 0 139 53l60 -92q-82 -74 -209 -74q-128 0 -197 72t-69 209v614h-154z" />
<glyph unicode="u" horiz-adv-x="1200" d="M184 416v565h121v-553q0 -148 80 -238t213 -90q134 0 215.5 90t81.5 238v553h121v-565q0 -194 -114.5 -311t-303.5 -117q-187 0 -300.5 117t-113.5 311z" />
<glyph unicode="v" horiz-adv-x="1030" d="M53 981h133l332 -868l334 868h125l-383 -981h-156z" />
<glyph unicode="w" horiz-adv-x="1646" d="M72 981h131l266 -842l287 842h135l287 -842l268 842h129l-326 -981h-147l-283 823l-282 -823h-140z" />
<glyph unicode="x" horiz-adv-x="1024" d="M53 0l383 502l-364 479h149l297 -389l299 389h137l-366 -477l385 -504h-152l-315 412l-316 -412h-137z" />
<glyph unicode="y" horiz-adv-x="1030" d="M41 981h129l369 -844l317 844h123l-444 -1171q-42 -114 -108.5 -174t-168.5 -60q-118 0 -205 78l60 94q65 -59 151 -59q56 0 94.5 36.5t73.5 127.5l51 135z" />
<glyph unicode="z" horiz-adv-x="1001" d="M104 0v109l629 763h-616v109h770v-109l-629 -763h641v-109h-795z" />
<glyph unicode="{" horiz-adv-x="716" d="M102 516v111q101 0 137.5 40t36.5 140v334q0 120 68 194t203 74h96v-109h-74q-172 0 -172 -172v-346q0 -198 -159 -211q159 -13 159 -211v-346q0 -172 172 -172h74v-108h-96q-135 0 -203 74t-68 194v334q0 100 -36.5 140t-137.5 40z" />
<glyph unicode="|" horiz-adv-x="550" d="M217 -401v1810h117v-1810h-117z" />
<glyph unicode="}" horiz-adv-x="716" d="M74 -158h73q170 0 170 172v346q0 198 160 211q-160 13 -160 211v346q0 172 -170 172h-73v109h94q135 0 202.5 -73.5t67.5 -194.5v-334q0 -100 37.5 -140t138.5 -40v-111q-101 0 -138.5 -40t-37.5 -140v-334q0 -121 -67.5 -194.5t-202.5 -73.5h-94v108z" />
<glyph unicode="~" horiz-adv-x="1067" d="M143 575v119q105 76 211 76q53 0 103.5 -16.5t84 -36.5t80.5 -36.5t93 -16.5q118 0 211 67v-121q-99 -61 -207 -61q-53 0 -104 16.5t-85.5 36.5t-81.5 36.5t-92 16.5q-121 0 -213 -80z" />
<glyph unicode="&#xa1;" horiz-adv-x="589" d="M199 909q0 38 29 66.5t67 28.5t67 -28.5t29 -66.5q0 -39 -28.5 -67.5t-67.5 -28.5t-67.5 28.5t-28.5 67.5zM225 -324l17 932h102l16 -932h-135z" />
<glyph unicode="&#xa2;" horiz-adv-x="1062" d="M125 649q0 195 120.5 338.5t307.5 169.5v162h109v-160q199 -9 317 -127l-72 -88q-115 105 -282 105q-165 0 -272 -115t-107 -283t107 -285.5t268 -117.5q182 0 286 104l66 -88q-111 -114 -311 -127v-160h-111v162q-186 25 -306 169t-120 341z" />
<glyph unicode="&#xa3;" horiz-adv-x="1116" d="M111 0v111h59q121 0 121 151v305h-141v92h141v277q0 181 108 291t287 110q230 0 350 -176l-84 -78q-98 140 -262 140q-131 0 -204.5 -82.5t-73.5 -212.5v-269h503v-92h-503v-309q0 -125 -88 -147h731v-111h-944z" />
<glyph unicode="&#xa4;" horiz-adv-x="1128" d="M74 238l145 139q-78 115 -78 250q0 136 76 252l-143 139l78 80l141 -135q116 98 270 98q157 0 271 -100l143 137l78 -80l-148 -141q74 -113 74 -250q0 -135 -74 -248l148 -141l-78 -82l-143 137q-121 -100 -271 -100q-154 0 -268 100l-143 -137zM254 627 q0 -136 88.5 -231t220.5 -95q131 0 218 95t87 231q0 137 -87 232t-218 95q-132 0 -220.5 -95.5t-88.5 -231.5z" />
<glyph unicode="&#xa5;" horiz-adv-x="1183" d="M37 1313h139l418 -746l420 746h133l-279 -488h164v-92h-217l-125 -219h342v-94h-379v-420h-123v420h-378v94h342l-125 219h-217v92h163z" />
<glyph unicode="&#xa6;" horiz-adv-x="550" d="M217 346h117v-747h-117v747zM217 662v747h117v-747h-117z" />
<glyph unicode="&#xa7;" horiz-adv-x="1363" d="M164 567q0 70 43 134t125 102q-96 76 -96 196q0 151 121.5 243.5t318.5 92.5q142 0 257.5 -53.5t172.5 -134.5l-88 -84q-48 66 -143 112t-203 46q-140 0 -223.5 -58.5t-83.5 -156.5q0 -64 46.5 -110.5t121 -74.5t164 -52.5t179.5 -54t164.5 -69t121 -107t46.5 -159.5 q0 -75 -40 -138.5t-109 -105.5q76 -76 76 -186q0 -169 -125 -271t-336 -102q-162 0 -286 58t-198 157l91 82q146 -182 395 -182q155 0 243.5 66.5t88.5 176.5q0 72 -46.5 123.5t-121 82t-164.5 56t-180 54t-164.5 65.5t-121 101t-46.5 151zM291 569q0 -67 46 -115t125.5 -78 t163.5 -53t183.5 -54.5t163.5 -67.5q49 30 77.5 75.5t28.5 96.5q0 60 -32 107t-82 75.5t-122 55t-139.5 43.5t-147.5 42.5t-134 51.5q-62 -25 -96.5 -72t-34.5 -107z" />
<glyph unicode="&#xa8;" horiz-adv-x="819" d="M174 1264q0 32 23 55.5t55 23.5q34 0 57 -23.5t23 -55.5t-23 -55t-57 -23q-32 0 -55 23t-23 55zM487 1264q0 32 23 55.5t55 23.5t56 -23.5t24 -55.5t-24 -55t-56 -23t-55 23t-23 55z" />
<glyph unicode="&#xa9;" horiz-adv-x="1732" d="M133 659q0 148 58.5 284t156.5 234.5t234 157t284 58.5t284 -58.5t234 -157t156.5 -234.5t58.5 -284t-58.5 -284t-156.5 -234t-234 -156.5t-284 -58.5t-284 58.5t-234 156.5t-156.5 234t-58.5 284zM227 662q0 -131 50.5 -250.5t136.5 -206t204 -138t248 -51.5t248.5 51.5 t204.5 138t137 206t51 250.5q0 174 -86 322t-234 234.5t-321 86.5t-320.5 -86.5t-233 -234.5t-85.5 -322zM432 657q0 185 127 316t309 131q198 0 318 -117l-64 -80q-54 51 -112 74t-138 23q-139 0 -236 -101t-97 -246q0 -143 98.5 -242.5t247.5 -99.5q140 0 248 97l57 -76 q-125 -119 -311 -119q-189 0 -318 128t-129 312z" />
<glyph unicode="&#xaa;" horiz-adv-x="845" d="M72 985q0 145 88.5 243.5t220.5 98.5q79 0 142 -37t100 -104v125h104v-652h-104v127q-39 -67 -101.5 -104t-140.5 -37q-130 0 -219.5 97.5t-89.5 242.5zM176 985q0 -101 64 -173.5t159 -72.5q97 0 160.5 72t63.5 174t-63.5 172t-160.5 70q-96 0 -159.5 -70t-63.5 -172z " />
<glyph unicode="&#xab;" horiz-adv-x="1011" d="M115 498l321 403l76 -63l-272 -340l272 -340l-76 -64zM500 498l321 403l76 -63l-270 -340l270 -340l-76 -64z" />
<glyph unicode="&#xac;" horiz-adv-x="1067" d="M143 604v113h783v-398h-113v285h-670z" />
<glyph unicode="&#xad;" horiz-adv-x="636" d="M82 438v107h473v-107h-473z" />
<glyph unicode="&#xae;" horiz-adv-x="1032" d="M76 965q0 187 128 318.5t314 131.5q121 0 221.5 -60.5t157.5 -164t57 -225.5q0 -190 -123.5 -318.5t-312.5 -128.5q-186 0 -314 130.5t-128 316.5zM160 965q0 -153 103.5 -261t254.5 -108q154 0 255 105.5t101 263.5q0 155 -103 263.5t-253 108.5q-151 0 -254.5 -108.5 t-103.5 -263.5zM346 729v479h182q30 0 57 -5.5t56 -19t46.5 -43t17.5 -71.5q0 -61 -36 -92.5t-89 -40.5l155 -207h-102l-150 203h-47v-203h-90zM436 1004h88q42 0 65 13t23 52q0 38 -24 51t-64 13h-88v-129z" />
<glyph unicode="&#xaf;" horiz-adv-x="819" d="M135 1221v98h547v-98h-547z" />
<glyph unicode="&#xb0;" horiz-adv-x="735" d="M37 1006q0 138 94 232.5t238 94.5q150 0 239.5 -93.5t89.5 -233.5q0 -137 -92 -230.5t-239 -93.5q-139 0 -234.5 95t-95.5 229zM133 1006q0 -104 70.5 -170t163.5 -66q102 0 168.5 65.5t66.5 170.5q0 111 -67.5 175t-165.5 64q-95 0 -165.5 -65t-70.5 -174z" />
<glyph unicode="&#xb1;" horiz-adv-x="1067" d="M143 0v111h783v-111h-783zM143 647v113h332v350h117v-350h334v-113h-334v-350h-117v350h-332z" />
<glyph unicode="&#xb2;" horiz-adv-x="614" d="M82 1186q29 62 86 101.5t141 39.5q94 0 153.5 -58.5t59.5 -140.5q0 -59 -26.5 -108.5t-92.5 -104.5l-190 -176h315v-82h-442v74l256 236q84 75 84 153q0 49 -34.5 84t-92.5 35q-95 0 -149 -100z" />
<glyph unicode="&#xb3;" horiz-adv-x="614" d="M78 750l65 61q62 -82 154 -82q69 0 106 36.5t37 92.5q0 59 -41.5 94t-128.5 35h-51v49l189 195h-295v82h405v-72l-192 -190q209 -22 209 -195q0 -89 -63 -150t-175 -61q-143 0 -219 105z" />
<glyph unicode="&#xb4;" horiz-adv-x="819" d="M324 1090l200 319h152l-240 -319h-112z" />
<glyph unicode="&#xb5;" horiz-adv-x="1216" d="M199 -385v1366h120v-553q0 -148 81 -238t214 -90q134 0 215.5 90t81.5 238v553h121v-565q0 -194 -114.5 -311t-303.5 -117q-182 0 -295 110v-483h-120z" />
<glyph unicode="&#xb6;" horiz-adv-x="1130" d="M113 907q0 186 123.5 296t338.5 110h345v-1714h-101v1605h-121v-1605h-139v882q-207 10 -326.5 128.5t-119.5 297.5z" />
<glyph unicode="&#xb7;" horiz-adv-x="819" d="M328 637q0 34 23.5 58t58.5 24q34 0 58 -24t24 -58t-24 -58t-58 -24q-35 0 -58.5 24t-23.5 58z" />
<glyph unicode="&#xb8;" horiz-adv-x="819" d="M213 -311l176 338h90l-160 -383z" />
<glyph unicode="&#xb9;" horiz-adv-x="614" d="M96 1149l172 164h99v-656h-97v543l-116 -115z" />
<glyph unicode="&#xba;" horiz-adv-x="800" d="M72 985q0 142 95 242t232 100q139 0 233.5 -100t94.5 -242q0 -141 -95 -240.5t-233 -99.5q-137 0 -232 100t-95 240zM176 985q0 -101 64 -172.5t159 -71.5q97 0 160.5 71.5t63.5 172.5q0 102 -63.5 172t-160.5 70q-96 0 -159.5 -70t-63.5 -172z" />
<glyph unicode="&#xbb;" horiz-adv-x="1011" d="M115 158l272 340l-272 340l75 63l322 -403l-322 -404zM500 158l272 340l-272 340l75 63l322 -403l-322 -404z" />
<glyph unicode="&#xbc;" horiz-adv-x="1396" d="M96 1149l172 164h99v-656h-97v543l-116 -115zM209 0l913 1313h109l-912 -1313h-110zM829 135v86l324 434h86v-434h98v-86h-98v-135h-90v135h-320zM913 221h236v320z" />
<glyph unicode="&#xbd;" horiz-adv-x="1396" d="M96 1149l172 164h99v-656h-97v543l-116 -115zM162 0l913 1313h109l-912 -1313h-110zM864 528q29 63 86.5 102.5t141.5 39.5q94 0 153.5 -58.5t59.5 -140.5q0 -59 -26.5 -108.5t-92.5 -104.5l-191 -176h316v-82h-443v74l256 235q84 75 84 154q0 49 -34.5 84t-92.5 35 q-94 0 -149 -101z" />
<glyph unicode="&#xbe;" horiz-adv-x="1396" d="M78 750l65 61q62 -82 154 -82q69 0 106 36.5t37 92.5q0 59 -41.5 94t-128.5 35h-51v49l189 195h-295v82h405v-72l-192 -190q209 -22 209 -195q0 -89 -63 -150t-175 -61q-143 0 -219 105zM240 0l913 1313h109l-912 -1313h-110zM829 135v86l324 434h86v-434h98v-86h-98 v-135h-90v135h-320zM913 221h236v320z" />
<glyph unicode="&#xbf;" horiz-adv-x="1013" d="M137 27q0 118 57.5 211.5t196.5 191.5l164 113l59 -88l-165 -117q-100 -70 -145.5 -140t-45.5 -165q0 -118 81 -192t208 -74q178 0 313 190l84 -68q-61 -104 -165.5 -169.5t-239.5 -65.5q-95 0 -173 31.5t-127 84t-75.5 119t-26.5 138.5zM453 909q0 38 29 66.5t67 28.5 t66 -28.5t28 -66.5q0 -40 -28 -68t-66 -28q-39 0 -67.5 28.5t-28.5 67.5z" />
<glyph unicode="&#xc0;" horiz-adv-x="1353" d="M53 0l553 1313h144l550 -1313h-137l-155 373h-672l-156 -373h-127zM381 483h582l-291 699zM412 1741h151l201 -320h-113z" />
<glyph unicode="&#xc1;" horiz-adv-x="1353" d="M53 0l553 1313h144l550 -1313h-137l-155 373h-672l-156 -373h-127zM381 483h582l-291 699zM592 1421l201 320h151l-239 -320h-113z" />
<glyph unicode="&#xc2;" horiz-adv-x="1353" d="M53 0l553 1313h144l550 -1313h-137l-155 373h-672l-156 -373h-127zM373 1421l245 320h119l248 -320h-119l-188 236l-189 -236h-116zM381 483h582l-291 699z" />
<glyph unicode="&#xc3;" horiz-adv-x="1353" d="M53 0l553 1313h144l550 -1313h-137l-155 373h-672l-156 -373h-127zM350 1530q66 162 187 162q41 0 80 -19.5t65 -43t61.5 -43t69.5 -19.5q77 0 129 112l62 -49q-61 -162 -183 -162q-41 0 -80.5 20t-66.5 43.5t-62.5 43.5t-68.5 20q-74 0 -129 -112zM381 483h582l-291 699 z" />
<glyph unicode="&#xc4;" horiz-adv-x="1353" d="M53 0l553 1313h144l550 -1313h-137l-155 373h-672l-156 -373h-127zM381 483h582l-291 699zM442 1595q0 32 23 56t55 24q33 0 56.5 -23.5t23.5 -56.5q0 -32 -23 -54.5t-57 -22.5q-32 0 -55 22.5t-23 54.5zM756 1595q0 32 23 56t55 24t55.5 -24t23.5 -56t-23.5 -54.5 t-55.5 -22.5t-55 22.5t-23 54.5z" />
<glyph unicode="&#xc5;" horiz-adv-x="1353" d="M53 0l553 1313h144l550 -1313h-137l-155 373h-672l-156 -373h-127zM381 483h582l-291 699zM457 1616q0 90 64 152.5t157 62.5q94 0 157.5 -62.5t63.5 -152.5t-63.5 -152.5t-157.5 -62.5q-93 0 -157 62.5t-64 152.5zM539 1616q0 -59 42 -98t99 -39t97 39t40 98t-40.5 99 t-96.5 40q-57 0 -99 -40t-42 -99z" />
<glyph unicode="&#xc6;" horiz-adv-x="1697" d="M20 0l642 1313h933v-115h-639v-483h557v-115h-557v-485h639v-115h-761v373h-504l-183 -373h-127zM385 483h449v719h-97z" />
<glyph unicode="&#xc7;" horiz-adv-x="1325" d="M135 653q0 139 52.5 265.5t141.5 217.5t212 145t258 54q145 0 254 -37t200 -114l-79 -97q-167 130 -375 130q-146 0 -269.5 -75.5t-195.5 -205.5t-72 -283q0 -152 72.5 -279.5t199.5 -202.5t281 -75q218 0 363 123l77 -88q-166 -148 -428 -154l-139 -333l-106 45l151 293 q-169 17 -306 110.5t-214.5 241t-77.5 319.5z" />
<glyph unicode="&#xc8;" horiz-adv-x="1130" d="M211 0v1313h819v-115h-696v-483h614v-115h-614v-485h696v-115h-819zM352 1741h152l201 -320h-113z" />
<glyph unicode="&#xc9;" horiz-adv-x="1130" d="M211 0v1313h819v-115h-696v-483h614v-115h-614v-485h696v-115h-819zM532 1421l201 320h152l-240 -320h-113z" />
<glyph unicode="&#xca;" horiz-adv-x="1130" d="M211 0v1313h819v-115h-696v-483h614v-115h-614v-485h696v-115h-819zM313 1421l246 320h119l248 -320h-119l-189 236l-188 -236h-117z" />
<glyph unicode="&#xcb;" horiz-adv-x="1130" d="M211 0v1313h819v-115h-696v-483h614v-115h-614v-485h696v-115h-819zM383 1595q0 32 23 56t55 24q33 0 56.5 -23.5t23.5 -56.5q0 -32 -23 -54.5t-57 -22.5q-32 0 -55 22.5t-23 54.5zM696 1595q0 32 23 56t55 24t56 -24t24 -56t-23.5 -54.5t-56.5 -22.5q-32 0 -55 22.5 t-23 54.5z" />
<glyph unicode="&#xcc;" horiz-adv-x="546" d="M6 1741h152l200 -320h-112zM211 0v1313h123v-1313h-123z" />
<glyph unicode="&#xcd;" horiz-adv-x="546" d="M186 1421l201 320h152l-240 -320h-113zM211 0v1313h123v-1313h-123z" />
<glyph unicode="&#xce;" horiz-adv-x="546" d="M-33 1421l246 320h119l248 -320h-119l-189 236l-188 -236h-117zM211 0v1313h123v-1313h-123z" />
<glyph unicode="&#xcf;" horiz-adv-x="546" d="M37 1595q0 32 23 56t55 24q33 0 56.5 -23.5t23.5 -56.5q0 -32 -23 -54.5t-57 -22.5q-32 0 -55 22.5t-23 54.5zM211 0v1313h123v-1313h-123zM350 1595q0 32 23 56t55 24t56 -24t24 -56t-23.5 -54.5t-56.5 -22.5q-32 0 -55 22.5t-23 54.5z" />
<glyph unicode="&#xd0;" horiz-adv-x="1454" d="M43 610v107h168v594h371q331 0 535 -181.5t204 -474.5q0 -193 -89.5 -342.5t-251 -231t-370.5 -81.5h-399v610h-168zM336 115h256q272 0 436 148t164 392q0 245 -164.5 393t-437.5 148h-254v-479h340v-107h-340v-495z" />
<glyph unicode="&#xd1;" horiz-adv-x="1492" d="M205 0v1313h133l827 -1123v1123h123v-1313h-135l-827 1120v-1120h-121zM418 1530q66 162 186 162q41 0 80 -19.5t65.5 -43t62 -43t69.5 -19.5q77 0 129 112l61 -49q-61 -162 -182 -162q-41 0 -80.5 20t-66.5 43.5t-63 43.5t-69 20q-74 0 -129 -112z" />
<glyph unicode="&#xd2;" horiz-adv-x="1599" d="M135 653q0 139 52.5 265.5t141.5 217.5t212 145t258 54q136 0 259 -54t212 -145.5t141.5 -217.5t52.5 -265q0 -137 -52.5 -262.5t-141.5 -216t-212 -144t-259 -53.5q-180 0 -333 90.5t-242 246t-89 339.5zM262 653q0 -113 42.5 -216t115 -178t171.5 -119t208 -44t209 44 t172 119t114.5 178t42.5 216q0 153 -72 283t-196 205.5t-270 75.5q-109 0 -208 -44.5t-171.5 -120.5t-115 -180.5t-42.5 -218.5zM532 1741h152l201 -320h-113z" />
<glyph unicode="&#xd3;" horiz-adv-x="1599" d="M135 653q0 139 52.5 265.5t141.5 217.5t212 145t258 54q136 0 259 -54t212 -145.5t141.5 -217.5t52.5 -265q0 -137 -52.5 -262.5t-141.5 -216t-212 -144t-259 -53.5q-180 0 -333 90.5t-242 246t-89 339.5zM262 653q0 -113 42.5 -216t115 -178t171.5 -119t208 -44t209 44 t172 119t114.5 178t42.5 216q0 153 -72 283t-196 205.5t-270 75.5q-109 0 -208 -44.5t-171.5 -120.5t-115 -180.5t-42.5 -218.5zM713 1421l200 320h152l-240 -320h-112z" />
<glyph unicode="&#xd4;" horiz-adv-x="1599" d="M135 653q0 139 52.5 265.5t141.5 217.5t212 145t258 54q136 0 259 -54t212 -145.5t141.5 -217.5t52.5 -265q0 -137 -52.5 -262.5t-141.5 -216t-212 -144t-259 -53.5q-180 0 -333 90.5t-242 246t-89 339.5zM262 653q0 -113 42.5 -216t115 -178t171.5 -119t208 -44t209 44 t172 119t114.5 178t42.5 216q0 153 -72 283t-196 205.5t-270 75.5q-109 0 -208 -44.5t-171.5 -120.5t-115 -180.5t-42.5 -218.5zM494 1421l245 320h119l248 -320h-119l-188 236l-189 -236h-116z" />
<glyph unicode="&#xd5;" horiz-adv-x="1599" d="M135 653q0 139 52.5 265.5t141.5 217.5t212 145t258 54q136 0 259 -54t212 -145.5t141.5 -217.5t52.5 -265q0 -137 -52.5 -262.5t-141.5 -216t-212 -144t-259 -53.5q-180 0 -333 90.5t-242 246t-89 339.5zM262 653q0 -113 42.5 -216t115 -178t171.5 -119t208 -44t209 44 t172 119t114.5 178t42.5 216q0 153 -72 283t-196 205.5t-270 75.5q-109 0 -208 -44.5t-171.5 -120.5t-115 -180.5t-42.5 -218.5zM471 1530q66 162 186 162q41 0 80 -19.5t65.5 -43t62 -43t69.5 -19.5q77 0 129 112l61 -49q-61 -162 -182 -162q-41 0 -80.5 20t-66.5 43.5 t-62.5 43.5t-68.5 20q-74 0 -129 -112z" />
<glyph unicode="&#xd6;" horiz-adv-x="1599" d="M135 653q0 139 52.5 265.5t141.5 217.5t212 145t258 54q136 0 259 -54t212 -145.5t141.5 -217.5t52.5 -265q0 -137 -52.5 -262.5t-141.5 -216t-212 -144t-259 -53.5q-180 0 -333 90.5t-242 246t-89 339.5zM262 653q0 -113 42.5 -216t115 -178t171.5 -119t208 -44t209 44 t172 119t114.5 178t42.5 216q0 153 -72 283t-196 205.5t-270 75.5q-109 0 -208 -44.5t-171.5 -120.5t-115 -180.5t-42.5 -218.5zM563 1595q0 32 23 56t55 24q33 0 56.5 -23.5t23.5 -56.5q0 -32 -23 -54.5t-57 -22.5q-32 0 -55 22.5t-23 54.5zM877 1595q0 33 22.5 56.5 t54.5 23.5t56 -24t24 -56t-23.5 -54.5t-56.5 -22.5q-32 0 -54.5 22.5t-22.5 54.5z" />
<glyph unicode="&#xd7;" horiz-adv-x="1067" d="M199 403l254 256l-254 254l84 82l254 -254l254 256l79 -79l-254 -256l254 -254l-84 -82l-254 254l-253 -256z" />
<glyph unicode="&#xd8;" horiz-adv-x="1599" d="M135 653q0 139 52.5 265.5t141.5 217.5t212 145t258 54q182 0 338 -94l114 168l78 -53l-115 -170q116 -96 183 -235.5t67 -297.5q0 -137 -52.5 -262.5t-141.5 -216t-212 -144t-259 -53.5q-183 0 -342 97l-115 -170l-78 53l117 172q-115 94 -180.5 231t-65.5 293zM262 653 q0 -125 50.5 -235t138.5 -187l618 910q-124 76 -270 76q-109 0 -208 -44.5t-171.5 -120.5t-115 -180.5t-42.5 -218.5zM526 174q127 -78 273 -78q109 0 209 44t172 119t114.5 178t42.5 216q0 128 -51 240t-141 192z" />
<glyph unicode="&#xd9;" horiz-adv-x="1376" d="M195 492v821h120v-824q0 -177 103 -285t270 -108t269 107t102 284v826h123v-821q0 -232 -136 -373.5t-360 -141.5q-222 0 -356.5 141.5t-134.5 373.5zM422 1741h151l201 -320h-112z" />
<glyph unicode="&#xda;" horiz-adv-x="1376" d="M195 492v821h120v-824q0 -177 103 -285t270 -108t269 107t102 284v826h123v-821q0 -232 -136 -373.5t-360 -141.5q-222 0 -356.5 141.5t-134.5 373.5zM602 1421l201 320h151l-239 -320h-113z" />
<glyph unicode="&#xdb;" horiz-adv-x="1376" d="M195 492v821h120v-824q0 -177 103 -285t270 -108t269 107t102 284v826h123v-821q0 -232 -136 -373.5t-360 -141.5q-222 0 -356.5 141.5t-134.5 373.5zM383 1421l246 320h119l247 -320h-118l-189 236l-188 -236h-117z" />
<glyph unicode="&#xdc;" horiz-adv-x="1376" d="M195 492v821h120v-824q0 -177 103 -285t270 -108t269 107t102 284v826h123v-821q0 -232 -136 -373.5t-360 -141.5q-222 0 -356.5 141.5t-134.5 373.5zM453 1595q0 33 22.5 56.5t54.5 23.5q33 0 56.5 -23.5t23.5 -56.5q0 -32 -23 -54.5t-57 -22.5q-32 0 -54.5 22.5 t-22.5 54.5zM766 1595q0 32 23 56t55 24t56 -24t24 -56t-23.5 -54.5t-56.5 -22.5q-32 0 -55 22.5t-23 54.5z" />
<glyph unicode="&#xdd;" horiz-adv-x="1183" d="M37 1313h139l418 -735l420 735h133l-494 -864v-449h-123v449zM506 1421l201 320h151l-240 -320h-112z" />
<glyph unicode="&#xde;" horiz-adv-x="1259" d="M211 0v1313h123v-228h332q216 0 347.5 -109t131.5 -290q0 -180 -133.5 -289.5t-354.5 -109.5h-323v-287h-123zM334 397h342q153 0 247.5 80t94.5 209q0 132 -94 210.5t-248 78.5h-342v-578z" />
<glyph unicode="&#xdf;" horiz-adv-x="1239" d="M217 0v989q0 206 110 324.5t300 118.5q185 0 295 -103.5t110 -271.5q0 -102 -47 -180t-133 -123q122 -38 192 -132t70 -233q0 -187 -120.5 -299.5t-307.5 -112.5q-153 0 -233 41l34 109q75 -37 193 -37q139 0 226 83.5t87 217.5q0 135 -86 216t-250 81h-137v105h125 q126 0 196 77.5t70 182.5q0 119 -74.5 192.5t-207.5 73.5q-141 0 -216 -86t-75 -246v-987h-121z" />
<glyph unicode="&#xe0;" d="M125 492q0 142 61.5 259t171.5 185t246 68q124 0 222.5 -57.5t160.5 -158.5v193h121v-981h-121v197q-62 -102 -160.5 -161t-222.5 -59q-134 0 -244 67.5t-172.5 186t-62.5 261.5zM246 494q0 -168 106 -286t266 -118q159 0 264 118t105 286t-104.5 282.5t-264.5 114.5 q-161 0 -266.5 -114.5t-105.5 -282.5zM356 1409h152l201 -319h-113z" />
<glyph unicode="&#xe1;" d="M125 492q0 142 61.5 259t171.5 185t246 68q124 0 222.5 -57.5t160.5 -158.5v193h121v-981h-121v197q-62 -102 -160.5 -161t-222.5 -59q-134 0 -244 67.5t-172.5 186t-62.5 261.5zM246 494q0 -168 106 -286t266 -118q159 0 264 118t105 286t-104.5 282.5t-264.5 114.5 q-161 0 -266.5 -114.5t-105.5 -282.5zM537 1090l200 319h152l-240 -319h-112z" />
<glyph unicode="&#xe2;" d="M125 492q0 142 61.5 259t171.5 185t246 68q124 0 222.5 -57.5t160.5 -158.5v193h121v-981h-121v197q-62 -102 -160.5 -161t-222.5 -59q-134 0 -244 67.5t-172.5 186t-62.5 261.5zM246 494q0 -168 106 -286t266 -118q159 0 264 118t105 286t-104.5 282.5t-264.5 114.5 q-161 0 -266.5 -114.5t-105.5 -282.5zM317 1090l246 319h119l248 -319h-119l-188 235l-189 -235h-117z" />
<glyph unicode="&#xe3;" d="M125 492q0 142 61.5 259t171.5 185t246 68q124 0 222.5 -57.5t160.5 -158.5v193h121v-981h-121v197q-62 -102 -160.5 -161t-222.5 -59q-134 0 -244 67.5t-172.5 186t-62.5 261.5zM246 494q0 -168 106 -286t266 -118q159 0 264 118t105 286t-104.5 282.5t-264.5 114.5 q-161 0 -266.5 -114.5t-105.5 -282.5zM295 1198q66 162 186 162q41 0 80 -19.5t65.5 -43t62 -43t69.5 -19.5q77 0 129 113l61 -50q-60 -161 -182 -161q-41 0 -80.5 20t-66.5 43.5t-63 43.5t-69 20q-73 0 -129 -113z" />
<glyph unicode="&#xe4;" d="M125 492q0 142 61.5 259t171.5 185t246 68q124 0 222.5 -57.5t160.5 -158.5v193h121v-981h-121v197q-62 -102 -160.5 -161t-222.5 -59q-134 0 -244 67.5t-172.5 186t-62.5 261.5zM246 494q0 -168 106 -286t266 -118q159 0 264 118t105 286t-104.5 282.5t-264.5 114.5 q-161 0 -266.5 -114.5t-105.5 -282.5zM387 1264q0 32 23 55.5t55 23.5q33 0 56.5 -23.5t23.5 -55.5t-23 -55t-57 -23q-32 0 -55 23t-23 55zM700 1264q0 32 23 55.5t55 23.5t56 -23.5t24 -55.5t-24 -55t-56 -23t-55 23t-23 55z" />
<glyph unicode="&#xe5;" d="M125 492q0 142 61.5 259t171.5 185t246 68q124 0 222.5 -57.5t160.5 -158.5v193h121v-981h-121v197q-62 -102 -160.5 -161t-222.5 -59q-134 0 -244 67.5t-172.5 186t-62.5 261.5zM246 494q0 -168 106 -286t266 -118q159 0 264 118t105 286t-104.5 282.5t-264.5 114.5 q-161 0 -266.5 -114.5t-105.5 -282.5zM401 1284q0 90 64.5 152.5t157.5 62.5q94 0 157.5 -62.5t63.5 -152.5t-63.5 -152.5t-157.5 -62.5q-93 0 -157.5 62.5t-64.5 152.5zM483 1284q0 -59 42.5 -98t99.5 -39t97 39t40 98t-40.5 99t-96.5 40q-57 0 -99.5 -40t-42.5 -99z" />
<glyph unicode="&#xe6;" horiz-adv-x="2031" d="M125 492q0 142 61.5 259t171.5 185t246 68q126 0 224.5 -59t158.5 -163v199h117v-195q59 101 154.5 159.5t214.5 58.5q126 0 232 -67t166 -180.5t60 -246.5q0 -27 -4 -51h-821q11 -159 117 -266t264 -107q90 0 171.5 31.5t135.5 85.5l66 -84q-63 -66 -163 -104t-206 -38 q-127 0 -227 59.5t-160 164.5v-201h-117v203q-61 -105 -159.5 -165.5t-223.5 -60.5q-134 0 -244 67.5t-172.5 186t-62.5 261.5zM246 494q0 -168 106 -286t266 -118q159 0 264 118t105 286t-104.5 282.5t-264.5 114.5q-161 0 -266.5 -114.5t-105.5 -282.5zM1106 547h700 q-20 163 -113.5 256.5t-232.5 93.5q-143 0 -239.5 -98.5t-114.5 -251.5z" />
<glyph unicode="&#xe7;" horiz-adv-x="1030" d="M125 492q0 214 142.5 363t355.5 149q111 0 203 -34.5t153 -95.5l-72 -88q-115 105 -282 105q-165 0 -272 -114.5t-107 -282.5t107 -286t268 -118q181 0 286 105l66 -89q-110 -113 -314 -126l-141 -336l-106 45l153 291q-191 20 -315.5 166t-124.5 346z" />
<glyph unicode="&#xe8;" horiz-adv-x="1173" d="M125 492q0 140 61 257.5t171 186t245 68.5q132 0 240.5 -67t169.5 -180t61 -247q0 -27 -4 -51h-821q11 -160 118 -266.5t267 -106.5q88 0 168 31t135 86l65 -84q-63 -66 -161.5 -104t-210.5 -38q-144 0 -260 69t-180 186.5t-64 259.5zM248 547h700q-20 163 -113.5 256.5 t-232.5 93.5q-142 0 -239 -99t-115 -251zM319 1409h152l201 -319h-113z" />
<glyph unicode="&#xe9;" horiz-adv-x="1173" d="M125 492q0 140 61 257.5t171 186t245 68.5q132 0 240.5 -67t169.5 -180t61 -247q0 -27 -4 -51h-821q11 -160 118 -266.5t267 -106.5q88 0 168 31t135 86l65 -84q-63 -66 -161.5 -104t-210.5 -38q-144 0 -260 69t-180 186.5t-64 259.5zM248 547h700q-20 163 -113.5 256.5 t-232.5 93.5q-142 0 -239 -99t-115 -251zM500 1090l200 319h152l-240 -319h-112z" />
<glyph unicode="&#xea;" horiz-adv-x="1173" d="M125 492q0 140 61 257.5t171 186t245 68.5q132 0 240.5 -67t169.5 -180t61 -247q0 -27 -4 -51h-821q11 -160 118 -266.5t267 -106.5q88 0 168 31t135 86l65 -84q-63 -66 -161.5 -104t-210.5 -38q-144 0 -260 69t-180 186.5t-64 259.5zM248 547h700q-20 163 -113.5 256.5 t-232.5 93.5q-142 0 -239 -99t-115 -251zM281 1090l245 319h119l248 -319h-119l-188 235l-189 -235h-116z" />
<glyph unicode="&#xeb;" horiz-adv-x="1173" d="M125 492q0 140 61 257.5t171 186t245 68.5q132 0 240.5 -67t169.5 -180t61 -247q0 -27 -4 -51h-821q11 -160 118 -266.5t267 -106.5q88 0 168 31t135 86l65 -84q-63 -66 -161.5 -104t-210.5 -38q-144 0 -260 69t-180 186.5t-64 259.5zM248 547h700q-20 163 -113.5 256.5 t-232.5 93.5q-142 0 -239 -99t-115 -251zM350 1264q0 32 23 55.5t55 23.5q34 0 57 -23.5t23 -55.5t-23 -55t-57 -23q-32 0 -55 23t-23 55zM664 1264q0 32 22.5 55.5t54.5 23.5t56 -23.5t24 -55.5t-24 -55t-56 -23t-54.5 23t-22.5 55z" />
<glyph unicode="&#xec;" horiz-adv-x="524" d="M-4 1409h151l201 -319h-112zM201 0v981h123v-981h-123z" />
<glyph unicode="&#xed;" horiz-adv-x="524" d="M176 1090l201 319h151l-239 -319h-113zM201 0v981h123v-981h-123z" />
<glyph unicode="&#xee;" horiz-adv-x="524" d="M-43 1090l246 319h119l247 -319h-118l-189 235l-188 -235h-117zM201 0v981h123v-981h-123z" />
<glyph unicode="&#xef;" horiz-adv-x="524" d="M27 1264q0 32 22.5 55.5t54.5 23.5q34 0 57 -23.5t23 -55.5t-23 -55t-57 -23q-32 0 -54.5 23t-22.5 55zM201 0v981h123v-981h-123zM340 1264q0 32 23 55.5t55 23.5t56 -23.5t24 -55.5t-24 -55t-56 -23t-55 23t-23 55z" />
<glyph unicode="&#xf0;" horiz-adv-x="1232" d="M125 473q0 208 140.5 348t350.5 140q94 0 180 -40t140 -104q-83 217 -274 389l-164 -92l-43 76l135 76q-83 62 -164 100l80 76q86 -41 190 -117l140 78l43 -76l-113 -63q157 -142 249.5 -334t92.5 -406q0 -252 -136.5 -399.5t-355.5 -147.5q-209 0 -350 144.5t-141 351.5 zM246 475q0 -162 105.5 -273.5t266.5 -111.5q159 0 264 111.5t105 273.5q0 161 -104.5 270t-264.5 109q-161 0 -266.5 -109t-105.5 -270z" />
<glyph unicode="&#xf1;" horiz-adv-x="1200" d="M201 0v981h123v-143q47 78 127.5 122t183.5 44q177 0 282 -108t105 -290v-606h-121v584q0 143 -77 225t-212 82t-211.5 -82t-76.5 -225v-584h-123zM289 1198q66 162 186 162q41 0 80 -19.5t65.5 -43t62 -43t69.5 -19.5q77 0 129 113l61 -50q-60 -161 -182 -161 q-41 0 -80.5 20t-66.5 43.5t-63 43.5t-69 20q-73 0 -129 -113z" />
<glyph unicode="&#xf2;" horiz-adv-x="1232" d="M125 492q0 140 63.5 257.5t176.5 186t251 68.5t251 -68.5t177 -186t64 -257.5q0 -215 -141.5 -365t-350.5 -150t-350 150t-141 365zM246 494q0 -168 106 -286t266 -118q159 0 264 118t105 286t-104.5 282.5t-264.5 114.5q-161 0 -266.5 -114.5t-105.5 -282.5zM350 1409 h152l200 -319h-112z" />
<glyph unicode="&#xf3;" horiz-adv-x="1232" d="M125 492q0 140 63.5 257.5t176.5 186t251 68.5t251 -68.5t177 -186t64 -257.5q0 -215 -141.5 -365t-350.5 -150t-350 150t-141 365zM246 494q0 -168 106 -286t266 -118q159 0 264 118t105 286t-104.5 282.5t-264.5 114.5q-161 0 -266.5 -114.5t-105.5 -282.5zM530 1090 l201 319h152l-240 -319h-113z" />
<glyph unicode="&#xf4;" horiz-adv-x="1232" d="M125 492q0 140 63.5 257.5t176.5 186t251 68.5t251 -68.5t177 -186t64 -257.5q0 -215 -141.5 -365t-350.5 -150t-350 150t-141 365zM246 494q0 -168 106 -286t266 -118q159 0 264 118t105 286t-104.5 282.5t-264.5 114.5q-161 0 -266.5 -114.5t-105.5 -282.5zM311 1090 l246 319h119l248 -319h-119l-189 235l-188 -235h-117z" />
<glyph unicode="&#xf5;" horiz-adv-x="1232" d="M125 492q0 140 63.5 257.5t176.5 186t251 68.5t251 -68.5t177 -186t64 -257.5q0 -215 -141.5 -365t-350.5 -150t-350 150t-141 365zM246 494q0 -168 106 -286t266 -118q159 0 264 118t105 286t-104.5 282.5t-264.5 114.5q-161 0 -266.5 -114.5t-105.5 -282.5zM289 1198 q66 162 186 162q41 0 80 -19.5t65.5 -43t62 -43t69.5 -19.5q77 0 129 113l61 -50q-60 -161 -182 -161q-41 0 -80.5 20t-66.5 43.5t-63 43.5t-69 20q-73 0 -129 -113z" />
<glyph unicode="&#xf6;" horiz-adv-x="1232" d="M125 492q0 140 63.5 257.5t176.5 186t251 68.5t251 -68.5t177 -186t64 -257.5q0 -215 -141.5 -365t-350.5 -150t-350 150t-141 365zM246 494q0 -168 106 -286t266 -118q159 0 264 118t105 286t-104.5 282.5t-264.5 114.5q-161 0 -266.5 -114.5t-105.5 -282.5zM381 1264 q0 32 23 55.5t55 23.5q33 0 56.5 -23.5t23.5 -55.5t-23 -55t-57 -23q-32 0 -55 23t-23 55zM694 1264q0 32 23 55.5t55 23.5t56 -23.5t24 -55.5t-24 -55t-56 -23t-55 23t-23 55z" />
<glyph unicode="&#xf7;" horiz-adv-x="1067" d="M143 604v113h783v-113h-783zM434 291q0 40 28 69t66 29t67.5 -29.5t29.5 -68.5q0 -38 -29 -66t-68 -28q-38 0 -66 28t-28 66zM434 1026q0 40 28 68t66 28q39 0 68 -28.5t29 -67.5q0 -38 -29 -66t-68 -28q-38 0 -66 28t-28 66z" />
<glyph unicode="&#xf8;" horiz-adv-x="1241" d="M125 492q0 140 64.5 257.5t178.5 186t253 68.5q138 0 253 -70l99 143l71 -49l-100 -145q81 -72 126.5 -174t45.5 -217q0 -141 -64 -259t-178 -187t-253 -69q-130 0 -246 66l-94 -137l-72 51l94 137q-84 71 -131 175t-47 223zM246 494q0 -88 32.5 -166.5t90.5 -134.5 l442 647q-82 51 -188 51q-163 0 -270 -115t-107 -282zM438 139q84 -49 185 -49q160 0 266 118t106 286q0 178 -114 292z" />
<glyph unicode="&#xf9;" horiz-adv-x="1200" d="M184 416v565h121v-553q0 -148 80 -238t213 -90q134 0 215.5 90t81.5 238v553h121v-565q0 -194 -114.5 -311t-303.5 -117q-187 0 -300.5 117t-113.5 311zM334 1409h151l201 -319h-113z" />
<glyph unicode="&#xfa;" horiz-adv-x="1200" d="M184 416v565h121v-553q0 -148 80 -238t213 -90q134 0 215.5 90t81.5 238v553h121v-565q0 -194 -114.5 -311t-303.5 -117q-187 0 -300.5 117t-113.5 311zM514 1090l201 319h151l-239 -319h-113z" />
<glyph unicode="&#xfb;" horiz-adv-x="1200" d="M184 416v565h121v-553q0 -148 80 -238t213 -90q134 0 215.5 90t81.5 238v553h121v-565q0 -194 -114.5 -311t-303.5 -117q-187 0 -300.5 117t-113.5 311zM295 1090l246 319h118l248 -319h-119l-188 235l-188 -235h-117z" />
<glyph unicode="&#xfc;" horiz-adv-x="1200" d="M184 416v565h121v-553q0 -148 80 -238t213 -90q134 0 215.5 90t81.5 238v553h121v-565q0 -194 -114.5 -311t-303.5 -117q-187 0 -300.5 117t-113.5 311zM365 1264q0 32 22.5 55.5t54.5 23.5q34 0 57 -23.5t23 -55.5t-23 -55t-57 -23q-32 0 -54.5 23t-22.5 55zM678 1264 q0 32 23 55.5t55 23.5t56 -23.5t24 -55.5t-24 -55t-56 -23t-55 23t-23 55z" />
<glyph unicode="&#xfd;" horiz-adv-x="1030" d="M41 981h129l369 -844l317 844h123l-444 -1171q-42 -114 -108.5 -174t-168.5 -60q-118 0 -205 78l60 94q65 -59 151 -59q56 0 94.5 36.5t73.5 127.5l51 135zM430 1090l201 319h151l-239 -319h-113z" />
<glyph unicode="&#xfe;" d="M201 -401v1810h123v-621q62 100 161 158t220 58q134 0 244 -67.5t172.5 -186t62.5 -261.5q0 -142 -61.5 -259t-171.5 -185t-246 -68q-122 0 -221 56t-160 155v-589h-123zM324 487q0 -167 105 -282t265 -115q161 0 265 114.5t104 282.5q0 169 -104.5 286.5t-264.5 117.5 q-159 0 -264.5 -118t-105.5 -286z" />
<glyph unicode="&#xff;" horiz-adv-x="1030" d="M41 981h129l369 -844l317 844h123l-444 -1171q-42 -114 -108.5 -174t-168.5 -60q-118 0 -205 78l60 94q65 -59 151 -59q56 0 94.5 36.5t73.5 127.5l51 135zM281 1264q0 32 22.5 55.5t54.5 23.5q34 0 57 -23.5t23 -55.5t-23 -55t-57 -23q-32 0 -54.5 23t-22.5 55z M594 1264q0 32 23 55.5t55 23.5t56 -23.5t24 -55.5t-24 -55t-56 -23t-55 23t-23 55z" />
<glyph unicode="&#x152;" horiz-adv-x="2256" d="M135 653q0 139 52.5 265.5t141.5 217.5t212 145t258 54q167 0 308.5 -80.5t229.5 -218.5v277h817v-115h-694v-483h613v-115h-613v-485h694v-115h-817v274q-88 -138 -229.5 -217.5t-308.5 -79.5q-180 0 -333 90.5t-242 246t-89 339.5zM262 653q0 -113 42.5 -216t115 -178 t171.5 -119t208 -44t209 44t172 119t114.5 178t42.5 216q0 153 -72 283t-196 205.5t-270 75.5q-109 0 -208 -44.5t-171.5 -120.5t-115 -180.5t-42.5 -218.5z" />
<glyph unicode="&#x153;" horiz-adv-x="2033" d="M125 492q0 140 63.5 257.5t176.5 186t251 68.5q140 0 255 -74t176 -197q58 123 168.5 197t246.5 74q132 0 240.5 -67t169.5 -180t61 -247q0 -27 -4 -51h-821q11 -159 117 -266t264 -107q90 0 171.5 31.5t135.5 85.5l66 -84q-63 -66 -163.5 -104t-211.5 -38 q-146 0 -261.5 74.5t-176.5 200.5q-61 -126 -176 -200.5t-257 -74.5q-209 0 -350 150t-141 365zM246 494q0 -168 106 -286t266 -118q159 0 264 118t105 286t-104.5 282.5t-264.5 114.5q-161 0 -266.5 -114.5t-105.5 -282.5zM1108 547h700q-20 163 -113.5 256.5t-232.5 93.5 q-143 0 -239.5 -98.5t-114.5 -251.5z" />
<glyph unicode="&#x178;" horiz-adv-x="1183" d="M37 1313h139l418 -735l420 735h133l-494 -864v-449h-123v449zM356 1595q0 32 23 56t55 24q33 0 56.5 -23.5t23.5 -56.5q0 -32 -23 -54.5t-57 -22.5q-32 0 -55 22.5t-23 54.5zM670 1595q0 32 23 56t55 24t55.5 -24t23.5 -56t-23.5 -54.5t-55.5 -22.5t-55 22.5t-23 54.5z " />
<glyph unicode="&#x2c6;" horiz-adv-x="819" d="M104 1090l246 319h119l248 -319h-119l-188 235l-189 -235h-117z" />
<glyph unicode="&#x2dc;" horiz-adv-x="819" d="M82 1198q66 162 186 162q41 0 80 -19.5t65.5 -43t62 -43t69.5 -19.5q77 0 129 113l61 -50q-60 -161 -182 -161q-41 0 -80.5 20t-66.5 43.5t-63 43.5t-69 20q-73 0 -129 -113z" />
<glyph unicode="&#x2000;" horiz-adv-x="915" />
<glyph unicode="&#x2001;" horiz-adv-x="1831" />
<glyph unicode="&#x2002;" horiz-adv-x="915" />
<glyph unicode="&#x2003;" horiz-adv-x="1831" />
<glyph unicode="&#x2004;" horiz-adv-x="610" />
<glyph unicode="&#x2005;" horiz-adv-x="457" />
<glyph unicode="&#x2006;" horiz-adv-x="305" />
<glyph unicode="&#x2007;" horiz-adv-x="305" />
<glyph unicode="&#x2008;" horiz-adv-x="228" />
<glyph unicode="&#x2009;" horiz-adv-x="366" />
<glyph unicode="&#x200a;" horiz-adv-x="101" />
<glyph unicode="&#x2010;" horiz-adv-x="636" d="M82 438v107h473v-107h-473z" />
<glyph unicode="&#x2011;" horiz-adv-x="636" d="M82 438v107h473v-107h-473z" />
<glyph unicode="&#x2012;" horiz-adv-x="636" d="M82 438v107h473v-107h-473z" />
<glyph unicode="&#x2013;" horiz-adv-x="1024" d="M82 438v107h860v-107h-860z" />
<glyph unicode="&#x2014;" horiz-adv-x="2048" d="M82 438v107h1884v-107h-1884z" />
<glyph unicode="&#x2018;" horiz-adv-x="362" d="M84 1012l98 397h88l-57 -397h-129z" />
<glyph unicode="&#x2019;" horiz-adv-x="362" d="M92 1012l60 397h129l-99 -397h-90z" />
<glyph unicode="&#x201a;" horiz-adv-x="362" d="M92 -254l60 399h129l-99 -399h-90z" />
<glyph unicode="&#x201c;" horiz-adv-x="643" d="M84 1012l98 397h88l-57 -397h-129zM365 1012l98 397h88l-59 -397h-127z" />
<glyph unicode="&#x201d;" horiz-adv-x="643" d="M92 1012l60 397h129l-99 -397h-90zM373 1012l59 397h127l-98 -397h-88z" />
<glyph unicode="&#x201e;" horiz-adv-x="643" d="M92 -254l60 399h129l-99 -399h-90zM373 -254l59 399h127l-98 -399h-88z" />
<glyph unicode="&#x2022;" horiz-adv-x="778" d="M156 512q0 98 67.5 165.5t165.5 67.5t166 -67.5t68 -165.5t-68 -165.5t-166 -67.5t-165.5 67.5t-67.5 165.5z" />
<glyph unicode="&#x2026;" horiz-adv-x="1165" d="M72 80q0 40 28 68t66 28q40 0 68 -28t28 -68q0 -38 -28 -66t-68 -28q-38 0 -66 28t-28 66zM487 80q0 40 28.5 68t66.5 28q40 0 68 -28t28 -68q0 -38 -28 -66t-68 -28q-38 0 -66.5 28t-28.5 66zM903 80q0 40 28 68t66 28q40 0 68.5 -28t28.5 -68q0 -38 -28.5 -66 t-68.5 -28q-38 0 -66 28t-28 66z" />
<glyph unicode="&#x202f;" horiz-adv-x="366" />
<glyph unicode="&#x2039;" horiz-adv-x="626" d="M115 498l321 403l76 -63l-272 -340l272 -340l-76 -64z" />
<glyph unicode="&#x203a;" horiz-adv-x="626" d="M115 158l272 340l-272 340l75 63l322 -403l-322 -404z" />
<glyph unicode="&#x205f;" horiz-adv-x="457" />
<glyph unicode="&#x20ac;" horiz-adv-x="1353" d="M37 455l26 94h111q-8 47 -8 104q0 62 8 111h-137l26 94h134q64 210 237.5 343.5t392.5 133.5q144 0 252.5 -37.5t202.5 -113.5l-76 -90q-163 127 -377 127q-170 0 -306.5 -100.5t-194.5 -262.5h665l-26 -94h-666q-10 -58 -10 -111q0 -38 8 -104h614l-28 -94h-559 q58 -162 197.5 -262.5t318.5 -100.5q221 0 366 123l74 -84q-92 -82 -200 -118t-246 -36q-227 0 -403 134t-238 344h-158z" />
<glyph unicode="&#x2122;" horiz-adv-x="1738" d="M90 1223v90h541v-90h-223v-627h-99v627h-219zM737 596v717h103l295 -398l295 398h96v-717h-99l3 575l-297 -397l-299 397l2 -575h-99z" />
<glyph unicode="&#x25fc;" horiz-adv-x="983" d="M0 0v983h983v-983h-983z" />
</font>
</defs>
</svg>
